<?xml version="1.0" encoding="UTF-8"?>
<svg xmlns="http://www.w3.org/2000/svg" width="1024" height="680" viewBox="0 0 1024 680">
<defs><style>.term-bg{fill:#0d1117}.term-char{font-family:'Courier New',monospace;font-size:14px}</style></defs>
<rect class="term-bg" width="1024" height="680"/>
<rect x="20" y="20" width="984" height="640" fill="#1c2128" stroke="#30363d" stroke-width="1" rx="8"/>
<rect x="20" y="20" width="984" height="30" fill="#0d1117" rx="8" ry="8"/>
<circle cx="35" cy="35" r="6" fill="#ff5f56"/>
<circle cx="55" cy="35" r="6" fill="#ffbd2e"/>
<circle cx="75" cy="35" r="6" fill="#27c93f"/>
<text x="150" y="38" class="term-char" fill="#8b949e" font-size="12">speedsys-rs — disk-select</text>
<text x="35" y="65" class="term-char" fill="#00c9ff">┌</text>
<text x="51" y="65" class="term-char" fill="#ffffff">D</text>
<text x="59" y="65" class="term-char" fill="#ffffff">i</text>
<text x="67" y="65" class="term-char" fill="#ffffff">s</text>
<text x="75" y="65" class="term-char" fill="#ffffff">k</text>
<text x="83" y="65" class="term-char" fill="#ffffff">/</text>
<text x="91" y="65" class="term-char" fill="#ffffff">D</text>
<text x="99" y="65" class="term-char" fill="#ffffff">e</text>
<text x="107" y="65" class="term-char" fill="#ffffff">v</text>
<text x="115" y="65" class="term-char" fill="#ffffff">i</text>
<text x="123" y="65" class="term-char" fill="#ffffff">c</text>
<text x="131" y="65" class="term-char" fill="#ffffff">e</text>
<text x="147" y="65" class="term-char" fill="#ffffff">S</text>
<text x="155" y="65" class="term-char" fill="#ffffff">e</text>
<text x="163" y="65" class="term-char" fill="#ffffff">l</text>
<text x="171" y="65" class="term-char" fill="#ffffff">e</text>
<text x="179" y="65" class="term-char" fill="#ffffff">c</text>
<text x="187" y="65" class="term-char" fill="#ffffff">t</text>
<text x="195" y="65" class="term-char" fill="#ffffff">o</text>
<text x="203" y="65" class="term-char" fill="#ffffff">r</text>
<text x="219" y="65" class="term-char" fill="#ffffff">[</text>
<text x="227" y="65" class="term-char" fill="#ffffff">↑</text>
<text x="235" y="65" class="term-char" fill="#ffffff">/</text>
<text x="243" y="65" class="term-char" fill="#ffffff">↓</text>
<text x="251" y="65" class="term-char" fill="#ffffff">]</text>
<text x="267" y="65" class="term-char" fill="#ffffff">[</text>
<text x="275" y="65" class="term-char" fill="#ffffff">E</text>
<text x="283" y="65" class="term-char" fill="#ffffff">n</text>
<text x="291" y="65" class="term-char" fill="#ffffff">t</text>
<text x="299" y="65" class="term-char" fill="#ffffff">e</text>
<text x="307" y="65" class="term-char" fill="#ffffff">r</text>
<text x="315" y="65" class="term-char" fill="#ffffff">]</text>
<text x="331" y="65" class="term-char" fill="#ffffff">S</text>
<text x="339" y="65" class="term-char" fill="#ffffff">e</text>
<text x="347" y="65" class="term-char" fill="#ffffff">l</text>
<text x="355" y="65" class="term-char" fill="#ffffff">e</text>
<text x="363" y="65" class="term-char" fill="#ffffff">c</text>
<text x="371" y="65" class="term-char" fill="#ffffff">t</text>
<text x="387" y="65" class="term-char" fill="#ffffff">[</text>
<text x="395" y="65" class="term-char" fill="#ffffff">t</text>
<text x="403" y="65" class="term-char" fill="#ffffff">]</text>
<text x="419" y="65" class="term-char" fill="#ffffff">Q</text>
<text x="427" y="65" class="term-char" fill="#ffffff">u</text>
<text x="435" y="65" class="term-char" fill="#ffffff">i</text>
<text x="443" y="65" class="term-char" fill="#ffffff">c</text>
<text x="451" y="65" class="term-char" fill="#ffffff">k</text>
<text x="467" y="65" class="term-char" fill="#ffffff">T</text>
<text x="475" y="65" class="term-char" fill="#ffffff">e</text>
<text x="483" y="65" class="term-char" fill="#ffffff">s</text>
<text x="491" y="65" class="term-char" fill="#ffffff">t</text>
<text x="507" y="65" class="term-char" fill="#ffffff">[</text>
<text x="515" y="65" class="term-char" fill="#ffffff">T</text>
<text x="523" y="65" class="term-char" fill="#ffffff">]</text>
<text x="539" y="65" class="term-char" fill="#ffffff">F</text>
<text x="547" y="65" class="term-char" fill="#ffffff">u</text>
<text x="555" y="65" class="term-char" fill="#ffffff">l</text>
<text x="563" y="65" class="term-char" fill="#ffffff">l</text>
<text x="579" y="65" class="term-char" fill="#ffffff">T</text>
<text x="587" y="65" class="term-char" fill="#ffffff">e</text>
<text x="595" y="65" class="term-char" fill="#ffffff">s</text>
<text x="603" y="65" class="term-char" fill="#ffffff">t</text>
<text x="619" y="65" class="term-char" fill="#ffffff">[</text>
<text x="627" y="65" class="term-char" fill="#ffffff">q</text>
<text x="635" y="65" class="term-char" fill="#ffffff">]</text>
<text x="651" y="65" class="term-char" fill="#ffffff">B</text>
<text x="659" y="65" class="term-char" fill="#ffffff">a</text>
<text x="667" y="65" class="term-char" fill="#ffffff">c</text>
<text x="675" y="65" class="term-char" fill="#ffffff">k</text>
<text x="691" y="65" class="term-char" fill="#00c9ff">─</text>
<text x="699" y="65" class="term-char" fill="#00c9ff">─</text>
<text x="707" y="65" class="term-char" fill="#00c9ff">─</text>
<text x="715" y="65" class="term-char" fill="#00c9ff">─</text>
<text x="723" y="65" class="term-char" fill="#00c9ff">─</text>
<text x="731" y="65" class="term-char" fill="#00c9ff">─</text>
<text x="739" y="65" class="term-char" fill="#00c9ff">─</text>
<text x="747" y="65" class="term-char" fill="#00c9ff">─</text>
<text x="755" y="65" class="term-char" fill="#00c9ff">─</text>
<text x="763" y="65" class="term-char" fill="#00c9ff">─</text>
<text x="771" y="65" class="term-char" fill="#00c9ff">─</text>
<text x="779" y="65" class="term-char" fill="#00c9ff">─</text>
<text x="787" y="65" class="term-char" fill="#00c9ff">─</text>
<text x="795" y="65" class="term-char" fill="#00c9ff">─</text>
<text x="803" y="65" class="term-char" fill="#00c9ff">─</text>
<text x="811" y="65" class="term-char" fill="#00c9ff">─</text>
<text x="819" y="65" class="term-char" fill="#00c9ff">─</text>
<text x="827" y="65" class="term-char" fill="#00c9ff">─</text>
<text x="835" y="65" class="term-char" fill="#00c9ff">─</text>
<text x="843" y="65" class="term-char" fill="#00c9ff">─</text>
<text x="851" y="65" class="term-char" fill="#00c9ff">─</text>
<text x="859" y="65" class="term-char" fill="#00c9ff">─</text>
<text x="867" y="65" class="term-char" fill="#00c9ff">─</text>
<text x="875" y="65" class="term-char" fill="#00c9ff">─</text>
<text x="883" y="65" class="term-char" fill="#00c9ff">─</text>
<text x="891" y="65" class="term-char" fill="#00c9ff">─</text>
<text x="899" y="65" class="term-char" fill="#00c9ff">─</text>
<text x="907" y="65" class="term-char" fill="#00c9ff">─</text>
<text x="915" y="65" class="term-char" fill="#00c9ff">─</text>
<text x="923" y="65" class="term-char" fill="#00c9ff">─</text>
<text x="931" y="65" class="term-char" fill="#00c9ff">─</text>
<text x="939" y="65" class="term-char" fill="#00c9ff">─</text>
<text x="947" y="65" class="term-char" fill="#00c9ff">─</text>
<text x="955" y="65" class="term-char" fill="#00c9ff">─</text>
<text x="963" y="65" class="term-char" fill="#00c9ff">─</text>
<text x="971" y="65" class="term-char" fill="#00c9ff">─</text>
<text x="979" y="65" class="term-char" fill="#00c9ff">─</text>
<text x="987" y="65" class="term-char" fill="#00c9ff">┐</text>
<text x="35" y="81" class="term-char" fill="#00c9ff">│</text>
<text x="43" y="81" class="term-char" fill="#000000">&gt;</text>
<text x="51" y="81" class="term-char" fill="#000000">&gt;</text>
<text x="75" y="81" class="term-char" fill="#000000">m</text>
<text x="83" y="81" class="term-char" fill="#000000">d</text>
<text x="91" y="81" class="term-char" fill="#000000">0</text>
<text x="115" y="81" class="term-char" fill="#000000">R</text>
<text x="123" y="81" class="term-char" fill="#000000">A</text>
<text x="131" y="81" class="term-char" fill="#000000">I</text>
<text x="139" y="81" class="term-char" fill="#000000">D</text>
<text x="147" y="81" class="term-char" fill="#000000">0</text>
<text x="163" y="81" class="term-char" fill="#000000">(</text>
<text x="171" y="81" class="term-char" fill="#000000">2</text>
<text x="187" y="81" class="term-char" fill="#000000">m</text>
<text x="195" y="81" class="term-char" fill="#000000">e</text>
<text x="203" y="81" class="term-char" fill="#000000">m</text>
<text x="211" y="81" class="term-char" fill="#000000">b</text>
<text x="219" y="81" class="term-char" fill="#000000">e</text>
<text x="227" y="81" class="term-char" fill="#000000">r</text>
<text x="235" y="81" class="term-char" fill="#000000">s</text>
<text x="243" y="81" class="term-char" fill="#000000">)</text>
<text x="267" y="81" class="term-char" fill="#000000">1</text>
<text x="275" y="81" class="term-char" fill="#000000">1</text>
<text x="283" y="81" class="term-char" fill="#000000">9</text>
<text x="291" y="81" class="term-char" fill="#000000">9</text>
<text x="299" y="81" class="term-char" fill="#000000">9</text>
<text x="307" y="81" class="term-char" fill="#000000">.</text>
<text x="315" y="81" class="term-char" fill="#000000">9</text>
<text x="331" y="81" class="term-char" fill="#000000">G</text>
<text x="339" y="81" class="term-char" fill="#000000">B</text>
<text x="363" y="81" class="term-char" fill="#000000">(</text>
<text x="371" y="81" class="term-char" fill="#000000">H</text>
<text x="379" y="81" class="term-char" fill="#000000">D</text>
<text x="387" y="81" class="term-char" fill="#000000">D</text>
<text x="395" y="81" class="term-char" fill="#000000">)</text>
<text x="987" y="81" class="term-char" fill="#00c9ff">│</text>
<text x="35" y="97" class="term-char" fill="#00c9ff">│</text>
<text x="75" y="97" class="term-char" fill="#ffffff">n</text>
<text x="83" y="97" class="term-char" fill="#ffffff">v</text>
<text x="91" y="97" class="term-char" fill="#ffffff">m</text>
<text x="99" y="97" class="term-char" fill="#ffffff">e</text>
<text x="107" y="97" class="term-char" fill="#ffffff">0</text>
<text x="115" y="97" class="term-char" fill="#ffffff">n</text>
<text x="123" y="97" class="term-char" fill="#ffffff">1</text>
<text x="147" y="97" class="term-char" fill="#ffffff">W</text>
<text x="155" y="97" class="term-char" fill="#ffffff">D</text>
<text x="163" y="97" class="term-char" fill="#ffffff">S</text>
<text x="171" y="97" class="term-char" fill="#ffffff">5</text>
<text x="179" y="97" class="term-char" fill="#ffffff">0</text>
<text x="187" y="97" class="term-char" fill="#ffffff">0</text>
<text x="195" y="97" class="term-char" fill="#ffffff">G</text>
<text x="203" y="97" class="term-char" fill="#ffffff">2</text>
<text x="211" y="97" class="term-char" fill="#ffffff">X</text>
<text x="219" y="97" class="term-char" fill="#ffffff">0</text>
<text x="227" y="97" class="term-char" fill="#ffffff">C</text>
<text x="235" y="97" class="term-char" fill="#ffffff">-</text>
<text x="243" y="97" class="term-char" fill="#ffffff">0</text>
<text x="251" y="97" class="term-char" fill="#ffffff">0</text>
<text x="259" y="97" class="term-char" fill="#ffffff">L</text>
<text x="267" y="97" class="term-char" fill="#ffffff">3</text>
<text x="275" y="97" class="term-char" fill="#ffffff">5</text>
<text x="283" y="97" class="term-char" fill="#ffffff">0</text>
<text x="307" y="97" class="term-char" fill="#ffffff">5</text>
<text x="315" y="97" class="term-char" fill="#ffffff">0</text>
<text x="323" y="97" class="term-char" fill="#ffffff">0</text>
<text x="331" y="97" class="term-char" fill="#ffffff">.</text>
<text x="339" y="97" class="term-char" fill="#ffffff">1</text>
<text x="355" y="97" class="term-char" fill="#ffffff">G</text>
<text x="363" y="97" class="term-char" fill="#ffffff">B</text>
<text x="387" y="97" class="term-char" fill="#ffffff">(</text>
<text x="395" y="97" class="term-char" fill="#ffffff">S</text>
<text x="403" y="97" class="term-char" fill="#ffffff">S</text>
<text x="411" y="97" class="term-char" fill="#ffffff">D</text>
<text x="419" y="97" class="term-char" fill="#ffffff">)</text>
<text x="987" y="97" class="term-char" fill="#00c9ff">│</text>
<text x="35" y="113" class="term-char" fill="#00c9ff">│</text>
<text x="75" y="113" class="term-char" fill="#ffffff">n</text>
<text x="83" y="113" class="term-char" fill="#ffffff">v</text>
<text x="91" y="113" class="term-char" fill="#ffffff">m</text>
<text x="99" y="113" class="term-char" fill="#ffffff">e</text>
<text x="107" y="113" class="term-char" fill="#ffffff">1</text>
<text x="115" y="113" class="term-char" fill="#ffffff">n</text>
<text x="123" y="113" class="term-char" fill="#ffffff">1</text>
<text x="147" y="113" class="term-char" fill="#ffffff">I</text>
<text x="155" y="113" class="term-char" fill="#ffffff">N</text>
<text x="163" y="113" class="term-char" fill="#ffffff">T</text>
<text x="171" y="113" class="term-char" fill="#ffffff">E</text>
<text x="179" y="113" class="term-char" fill="#ffffff">L</text>
<text x="195" y="113" class="term-char" fill="#ffffff">S</text>
<text x="203" y="113" class="term-char" fill="#ffffff">S</text>
<text x="211" y="113" class="term-char" fill="#ffffff">D</text>
<text x="219" y="113" class="term-char" fill="#ffffff">P</text>
<text x="227" y="113" class="term-char" fill="#ffffff">E</text>
<text x="235" y="113" class="term-char" fill="#ffffff">K</text>
<text x="243" y="113" class="term-char" fill="#ffffff">N</text>
<text x="251" y="113" class="term-char" fill="#ffffff">W</text>
<text x="259" y="113" class="term-char" fill="#ffffff">0</text>
<text x="267" y="113" class="term-char" fill="#ffffff">1</text>
<text x="275" y="113" class="term-char" fill="#ffffff">0</text>
<text x="283" y="113" class="term-char" fill="#ffffff">T</text>
<text x="291" y="113" class="term-char" fill="#ffffff">8</text>
<text x="315" y="113" class="term-char" fill="#ffffff">1</text>
<text x="323" y="113" class="term-char" fill="#ffffff">0</text>
<text x="331" y="113" class="term-char" fill="#ffffff">2</text>
<text x="339" y="113" class="term-char" fill="#ffffff">4</text>
<text x="347" y="113" class="term-char" fill="#ffffff">.</text>
<text x="355" y="113" class="term-char" fill="#ffffff">2</text>
<text x="371" y="113" class="term-char" fill="#ffffff">G</text>
<text x="379" y="113" class="term-char" fill="#ffffff">B</text>
<text x="403" y="113" class="term-char" fill="#ffffff">(</text>
<text x="411" y="113" class="term-char" fill="#ffffff">S</text>
<text x="419" y="113" class="term-char" fill="#ffffff">S</text>
<text x="427" y="113" class="term-char" fill="#ffffff">D</text>
<text x="435" y="113" class="term-char" fill="#ffffff">)</text>
<text x="987" y="113" class="term-char" fill="#00c9ff">│</text>
<text x="35" y="129" class="term-char" fill="#00c9ff">│</text>
<text x="75" y="129" class="term-char" fill="#ffffff">n</text>
<text x="83" y="129" class="term-char" fill="#ffffff">v</text>
<text x="91" y="129" class="term-char" fill="#ffffff">m</text>
<text x="99" y="129" class="term-char" fill="#ffffff">e</text>
<text x="107" y="129" class="term-char" fill="#ffffff">2</text>
<text x="115" y="129" class="term-char" fill="#ffffff">n</text>
<text x="123" y="129" class="term-char" fill="#ffffff">1</text>
<text x="147" y="129" class="term-char" fill="#ffffff">C</text>
<text x="155" y="129" class="term-char" fill="#ffffff">T</text>
<text x="163" y="129" class="term-char" fill="#ffffff">4</text>
<text x="171" y="129" class="term-char" fill="#ffffff">0</text>
<text x="179" y="129" class="term-char" fill="#ffffff">0</text>
<text x="187" y="129" class="term-char" fill="#ffffff">0</text>
<text x="195" y="129" class="term-char" fill="#ffffff">P</text>
<text x="203" y="129" class="term-char" fill="#ffffff">3</text>
<text x="211" y="129" class="term-char" fill="#ffffff">P</text>
<text x="219" y="129" class="term-char" fill="#ffffff">S</text>
<text x="227" y="129" class="term-char" fill="#ffffff">S</text>
<text x="235" y="129" class="term-char" fill="#ffffff">D</text>
<text x="243" y="129" class="term-char" fill="#ffffff">8</text>
<text x="267" y="129" class="term-char" fill="#ffffff">4</text>
<text x="275" y="129" class="term-char" fill="#ffffff">0</text>
<text x="283" y="129" class="term-char" fill="#ffffff">0</text>
<text x="291" y="129" class="term-char" fill="#ffffff">0</text>
<text x="299" y="129" class="term-char" fill="#ffffff">.</text>
<text x="307" y="129" class="term-char" fill="#ffffff">8</text>
<text x="323" y="129" class="term-char" fill="#ffffff">G</text>
<text x="331" y="129" class="term-char" fill="#ffffff">B</text>
<text x="355" y="129" class="term-char" fill="#ffffff">(</text>
<text x="363" y="129" class="term-char" fill="#ffffff">S</text>
<text x="371" y="129" class="term-char" fill="#ffffff">S</text>
<text x="379" y="129" class="term-char" fill="#ffffff">D</text>
<text x="387" y="129" class="term-char" fill="#ffffff">)</text>
<text x="987" y="129" class="term-char" fill="#00c9ff">│</text>
<text x="35" y="145" class="term-char" fill="#00c9ff">│</text>
<text x="75" y="145" class="term-char" fill="#ffffff">s</text>
<text x="83" y="145" class="term-char" fill="#ffffff">d</text>
<text x="91" y="145" class="term-char" fill="#ffffff">a</text>
<text x="115" y="145" class="term-char" fill="#ffffff">S</text>
<text x="123" y="145" class="term-char" fill="#ffffff">a</text>
<text x="131" y="145" class="term-char" fill="#ffffff">m</text>
<text x="139" y="145" class="term-char" fill="#ffffff">s</text>
<text x="147" y="145" class="term-char" fill="#ffffff">u</text>
<text x="155" y="145" class="term-char" fill="#ffffff">n</text>
<text x="163" y="145" class="term-char" fill="#ffffff">g</text>
<text x="179" y="145" class="term-char" fill="#ffffff">S</text>
<text x="187" y="145" class="term-char" fill="#ffffff">S</text>
<text x="195" y="145" class="term-char" fill="#ffffff">D</text>
<text x="211" y="145" class="term-char" fill="#ffffff">8</text>
<text x="219" y="145" class="term-char" fill="#ffffff">7</text>
<text x="227" y="145" class="term-char" fill="#ffffff">0</text>
<text x="251" y="145" class="term-char" fill="#ffffff">5</text>
<text x="259" y="145" class="term-char" fill="#ffffff">0</text>
<text x="267" y="145" class="term-char" fill="#ffffff">0</text>
<text x="275" y="145" class="term-char" fill="#ffffff">.</text>
<text x="283" y="145" class="term-char" fill="#ffffff">1</text>
<text x="299" y="145" class="term-char" fill="#ffffff">G</text>
<text x="307" y="145" class="term-char" fill="#ffffff">B</text>
<text x="331" y="145" class="term-char" fill="#ffffff">(</text>
<text x="339" y="145" class="term-char" fill="#ffffff">S</text>
<text x="347" y="145" class="term-char" fill="#ffffff">S</text>
<text x="355" y="145" class="term-char" fill="#ffffff">D</text>
<text x="363" y="145" class="term-char" fill="#ffffff">)</text>
<text x="987" y="145" class="term-char" fill="#00c9ff">│</text>
<text x="35" y="161" class="term-char" fill="#00c9ff">│</text>
<text x="75" y="161" class="term-char" fill="#ffffff">s</text>
<text x="83" y="161" class="term-char" fill="#ffffff">d</text>
<text x="91" y="161" class="term-char" fill="#ffffff">b</text>
<text x="115" y="161" class="term-char" fill="#ffffff">W</text>
<text x="123" y="161" class="term-char" fill="#ffffff">D</text>
<text x="131" y="161" class="term-char" fill="#ffffff">C</text>
<text x="155" y="161" class="term-char" fill="#ffffff">W</text>
<text x="163" y="161" class="term-char" fill="#ffffff">D</text>
<text x="171" y="161" class="term-char" fill="#ffffff">S</text>
<text x="179" y="161" class="term-char" fill="#ffffff">1</text>
<text x="187" y="161" class="term-char" fill="#ffffff">0</text>
<text x="195" y="161" class="term-char" fill="#ffffff">0</text>
<text x="203" y="161" class="term-char" fill="#ffffff">T</text>
<text x="211" y="161" class="term-char" fill="#ffffff">2</text>
<text x="219" y="161" class="term-char" fill="#ffffff">B</text>
<text x="227" y="161" class="term-char" fill="#ffffff">0</text>
<text x="235" y="161" class="term-char" fill="#ffffff">A</text>
<text x="259" y="161" class="term-char" fill="#ffffff">1</text>
<text x="267" y="161" class="term-char" fill="#ffffff">0</text>
<text x="275" y="161" class="term-char" fill="#ffffff">0</text>
<text x="283" y="161" class="term-char" fill="#ffffff">0</text>
<text x="291" y="161" class="term-char" fill="#ffffff">.</text>
<text x="299" y="161" class="term-char" fill="#ffffff">2</text>
<text x="315" y="161" class="term-char" fill="#ffffff">G</text>
<text x="323" y="161" class="term-char" fill="#ffffff">B</text>
<text x="347" y="161" class="term-char" fill="#ffffff">(</text>
<text x="355" y="161" class="term-char" fill="#ffffff">S</text>
<text x="363" y="161" class="term-char" fill="#ffffff">S</text>
<text x="371" y="161" class="term-char" fill="#ffffff">D</text>
<text x="379" y="161" class="term-char" fill="#ffffff">)</text>
<text x="987" y="161" class="term-char" fill="#00c9ff">│</text>
<text x="35" y="177" class="term-char" fill="#00c9ff">│</text>
<text x="75" y="177" class="term-char" fill="#ffffff">s</text>
<text x="83" y="177" class="term-char" fill="#ffffff">d</text>
<text x="91" y="177" class="term-char" fill="#ffffff">c</text>
<text x="115" y="177" class="term-char" fill="#ffffff">W</text>
<text x="123" y="177" class="term-char" fill="#ffffff">D</text>
<text x="131" y="177" class="term-char" fill="#ffffff">C</text>
<text x="147" y="177" class="term-char" fill="#ffffff">W</text>
<text x="155" y="177" class="term-char" fill="#ffffff">D</text>
<text x="163" y="177" class="term-char" fill="#ffffff">1</text>
<text x="171" y="177" class="term-char" fill="#ffffff">0</text>
<text x="179" y="177" class="term-char" fill="#ffffff">E</text>
<text x="187" y="177" class="term-char" fill="#ffffff">U</text>
<text x="195" y="177" class="term-char" fill="#ffffff">R</text>
<text x="203" y="177" class="term-char" fill="#ffffff">X</text>
<text x="211" y="177" class="term-char" fill="#ffffff">-</text>
<text x="219" y="177" class="term-char" fill="#ffffff">6</text>
<text x="227" y="177" class="term-char" fill="#ffffff">3</text>
<text x="235" y="177" class="term-char" fill="#ffffff">U</text>
<text x="259" y="177" class="term-char" fill="#ffffff">1</text>
<text x="267" y="177" class="term-char" fill="#ffffff">0</text>
<text x="275" y="177" class="term-char" fill="#ffffff">0</text>
<text x="283" y="177" class="term-char" fill="#ffffff">0</text>
<text x="291" y="177" class="term-char" fill="#ffffff">.</text>
<text x="299" y="177" class="term-char" fill="#ffffff">2</text>
<text x="315" y="177" class="term-char" fill="#ffffff">G</text>
<text x="323" y="177" class="term-char" fill="#ffffff">B</text>
<text x="347" y="177" class="term-char" fill="#ffffff">(</text>
<text x="355" y="177" class="term-char" fill="#ffffff">H</text>
<text x="363" y="177" class="term-char" fill="#ffffff">D</text>
<text x="371" y="177" class="term-char" fill="#ffffff">D</text>
<text x="379" y="177" class="term-char" fill="#ffffff">)</text>
<text x="987" y="177" class="term-char" fill="#00c9ff">│</text>
<text x="35" y="193" class="term-char" fill="#00c9ff">│</text>
<text x="75" y="193" class="term-char" fill="#ffffff">s</text>
<text x="83" y="193" class="term-char" fill="#ffffff">d</text>
<text x="91" y="193" class="term-char" fill="#ffffff">d</text>
<text x="115" y="193" class="term-char" fill="#ffffff">S</text>
<text x="123" y="193" class="term-char" fill="#ffffff">T</text>
<text x="131" y="193" class="term-char" fill="#ffffff">1</text>
<text x="139" y="193" class="term-char" fill="#ffffff">2</text>
<text x="147" y="193" class="term-char" fill="#ffffff">0</text>
<text x="155" y="193" class="term-char" fill="#ffffff">0</text>
<text x="163" y="193" class="term-char" fill="#ffffff">0</text>
<text x="171" y="193" class="term-char" fill="#ffffff">V</text>
<text x="179" y="193" class="term-char" fill="#ffffff">N</text>
<text x="187" y="193" class="term-char" fill="#ffffff">0</text>
<text x="195" y="193" class="term-char" fill="#ffffff">0</text>
<text x="203" y="193" class="term-char" fill="#ffffff">0</text>
<text x="211" y="193" class="term-char" fill="#ffffff">8</text>
<text x="219" y="193" class="term-char" fill="#ffffff">-</text>
<text x="227" y="193" class="term-char" fill="#ffffff">2</text>
<text x="235" y="193" class="term-char" fill="#ffffff">P</text>
<text x="259" y="193" class="term-char" fill="#ffffff">1</text>
<text x="267" y="193" class="term-char" fill="#ffffff">2</text>
<text x="275" y="193" class="term-char" fill="#ffffff">0</text>
<text x="283" y="193" class="term-char" fill="#ffffff">0</text>
<text x="291" y="193" class="term-char" fill="#ffffff">0</text>
<text x="299" y="193" class="term-char" fill="#ffffff">.</text>
<text x="307" y="193" class="term-char" fill="#ffffff">1</text>
<text x="323" y="193" class="term-char" fill="#ffffff">G</text>
<text x="331" y="193" class="term-char" fill="#ffffff">B</text>
<text x="355" y="193" class="term-char" fill="#ffffff">(</text>
<text x="363" y="193" class="term-char" fill="#ffffff">H</text>
<text x="371" y="193" class="term-char" fill="#ffffff">D</text>
<text x="379" y="193" class="term-char" fill="#ffffff">D</text>
<text x="387" y="193" class="term-char" fill="#ffffff">)</text>
<text x="987" y="193" class="term-char" fill="#00c9ff">│</text>
<text x="35" y="209" class="term-char" fill="#00c9ff">│</text>
<text x="75" y="209" class="term-char" fill="#ffffff">s</text>
<text x="83" y="209" class="term-char" fill="#ffffff">d</text>
<text x="91" y="209" class="term-char" fill="#ffffff">e</text>
<text x="115" y="209" class="term-char" fill="#ffffff">H</text>
<text x="123" y="209" class="term-char" fill="#ffffff">i</text>
<text x="131" y="209" class="term-char" fill="#ffffff">t</text>
<text x="139" y="209" class="term-char" fill="#ffffff">a</text>
<text x="147" y="209" class="term-char" fill="#ffffff">c</text>
<text x="155" y="209" class="term-char" fill="#ffffff">h</text>
<text x="163" y="209" class="term-char" fill="#ffffff">i</text>
<text x="179" y="209" class="term-char" fill="#ffffff">H</text>
<text x="187" y="209" class="term-char" fill="#ffffff">U</text>
<text x="195" y="209" class="term-char" fill="#ffffff">A</text>
<text x="203" y="209" class="term-char" fill="#ffffff">7</text>
<text x="211" y="209" class="term-char" fill="#ffffff">2</text>
<text x="219" y="209" class="term-char" fill="#ffffff">3</text>
<text x="227" y="209" class="term-char" fill="#ffffff">0</text>
<text x="235" y="209" class="term-char" fill="#ffffff">2</text>
<text x="259" y="209" class="term-char" fill="#ffffff">2</text>
<text x="267" y="209" class="term-char" fill="#ffffff">0</text>
<text x="275" y="209" class="term-char" fill="#ffffff">0</text>
<text x="283" y="209" class="term-char" fill="#ffffff">0</text>
<text x="291" y="209" class="term-char" fill="#ffffff">.</text>
<text x="299" y="209" class="term-char" fill="#ffffff">4</text>
<text x="315" y="209" class="term-char" fill="#ffffff">G</text>
<text x="323" y="209" class="term-char" fill="#ffffff">B</text>
<text x="347" y="209" class="term-char" fill="#ffffff">(</text>
<text x="355" y="209" class="term-char" fill="#ffffff">H</text>
<text x="363" y="209" class="term-char" fill="#ffffff">D</text>
<text x="371" y="209" class="term-char" fill="#ffffff">D</text>
<text x="379" y="209" class="term-char" fill="#ffffff">)</text>
<text x="987" y="209" class="term-char" fill="#00c9ff">│</text>
<text x="35" y="225" class="term-char" fill="#00c9ff">│</text>
<text x="75" y="225" class="term-char" fill="#ffffff">s</text>
<text x="83" y="225" class="term-char" fill="#ffffff">d</text>
<text x="91" y="225" class="term-char" fill="#ffffff">f</text>
<text x="115" y="225" class="term-char" fill="#ffffff">S</text>
<text x="123" y="225" class="term-char" fill="#ffffff">T</text>
<text x="131" y="225" class="term-char" fill="#ffffff">1</text>
<text x="139" y="225" class="term-char" fill="#ffffff">2</text>
<text x="147" y="225" class="term-char" fill="#ffffff">0</text>
<text x="155" y="225" class="term-char" fill="#ffffff">0</text>
<text x="163" y="225" class="term-char" fill="#ffffff">0</text>
<text x="171" y="225" class="term-char" fill="#ffffff">V</text>
<text x="179" y="225" class="term-char" fill="#ffffff">N</text>
<text x="187" y="225" class="term-char" fill="#ffffff">0</text>
<text x="195" y="225" class="term-char" fill="#ffffff">0</text>
<text x="203" y="225" class="term-char" fill="#ffffff">0</text>
<text x="211" y="225" class="term-char" fill="#ffffff">8</text>
<text x="219" y="225" class="term-char" fill="#ffffff">-</text>
<text x="227" y="225" class="term-char" fill="#ffffff">2</text>
<text x="235" y="225" class="term-char" fill="#ffffff">P</text>
<text x="259" y="225" class="term-char" fill="#ffffff">1</text>
<text x="267" y="225" class="term-char" fill="#ffffff">2</text>
<text x="275" y="225" class="term-char" fill="#ffffff">0</text>
<text x="283" y="225" class="term-char" fill="#ffffff">0</text>
<text x="291" y="225" class="term-char" fill="#ffffff">0</text>
<text x="299" y="225" class="term-char" fill="#ffffff">.</text>
<text x="307" y="225" class="term-char" fill="#ffffff">1</text>
<text x="323" y="225" class="term-char" fill="#ffffff">G</text>
<text x="331" y="225" class="term-char" fill="#ffffff">B</text>
<text x="355" y="225" class="term-char" fill="#ffffff">(</text>
<text x="363" y="225" class="term-char" fill="#ffffff">H</text>
<text x="371" y="225" class="term-char" fill="#ffffff">D</text>
<text x="379" y="225" class="term-char" fill="#ffffff">D</text>
<text x="387" y="225" class="term-char" fill="#ffffff">)</text>
<text x="987" y="225" class="term-char" fill="#00c9ff">│</text>
<text x="35" y="241" class="term-char" fill="#00c9ff">│</text>
<text x="75" y="241" class="term-char" fill="#ffffff">s</text>
<text x="83" y="241" class="term-char" fill="#ffffff">d</text>
<text x="91" y="241" class="term-char" fill="#ffffff">g</text>
<text x="115" y="241" class="term-char" fill="#ffffff">W</text>
<text x="123" y="241" class="term-char" fill="#ffffff">D</text>
<text x="131" y="241" class="term-char" fill="#ffffff">C</text>
<text x="147" y="241" class="term-char" fill="#ffffff">W</text>
<text x="155" y="241" class="term-char" fill="#ffffff">D</text>
<text x="163" y="241" class="term-char" fill="#ffffff">4</text>
<text x="171" y="241" class="term-char" fill="#ffffff">0</text>
<text x="179" y="241" class="term-char" fill="#ffffff">0</text>
<text x="187" y="241" class="term-char" fill="#ffffff">5</text>
<text x="195" y="241" class="term-char" fill="#ffffff">F</text>
<text x="203" y="241" class="term-char" fill="#ffffff">Z</text>
<text x="211" y="241" class="term-char" fill="#ffffff">B</text>
<text x="219" y="241" class="term-char" fill="#ffffff">X</text>
<text x="227" y="241" class="term-char" fill="#ffffff">-</text>
<text x="235" y="241" class="term-char" fill="#ffffff">0</text>
<text x="259" y="241" class="term-char" fill="#ffffff">4</text>
<text x="267" y="241" class="term-char" fill="#ffffff">0</text>
<text x="275" y="241" class="term-char" fill="#ffffff">0</text>
<text x="283" y="241" class="term-char" fill="#ffffff">0</text>
<text x="291" y="241" class="term-char" fill="#ffffff">.</text>
<text x="299" y="241" class="term-char" fill="#ffffff">8</text>
<text x="315" y="241" class="term-char" fill="#ffffff">G</text>
<text x="323" y="241" class="term-char" fill="#ffffff">B</text>
<text x="347" y="241" class="term-char" fill="#ffffff">(</text>
<text x="355" y="241" class="term-char" fill="#ffffff">H</text>
<text x="363" y="241" class="term-char" fill="#ffffff">D</text>
<text x="371" y="241" class="term-char" fill="#ffffff">D</text>
<text x="379" y="241" class="term-char" fill="#ffffff">)</text>
<text x="987" y="241" class="term-char" fill="#00c9ff">│</text>
<text x="35" y="257" class="term-char" fill="#00c9ff">│</text>
<text x="987" y="257" class="term-char" fill="#00c9ff">│</text>
<text x="35" y="273" class="term-char" fill="#00c9ff">│</text>
<text x="987" y="273" class="term-char" fill="#00c9ff">│</text>
<text x="35" y="289" class="term-char" fill="#00c9ff">│</text>
<text x="987" y="289" class="term-char" fill="#00c9ff">│</text>
<text x="35" y="305" class="term-char" fill="#00c9ff">│</text>
<text x="987" y="305" class="term-char" fill="#00c9ff">│</text>
<text x="35" y="321" class="term-char" fill="#00c9ff">│</text>
<text x="987" y="321" class="term-char" fill="#00c9ff">│</text>
<text x="35" y="337" class="term-char" fill="#00c9ff">│</text>
<text x="987" y="337" class="term-char" fill="#00c9ff">│</text>
<text x="35" y="353" class="term-char" fill="#00c9ff">│</text>
<text x="987" y="353" class="term-char" fill="#00c9ff">│</text>
<text x="35" y="369" class="term-char" fill="#00c9ff">│</text>
<text x="987" y="369" class="term-char" fill="#00c9ff">│</text>
<text x="35" y="385" class="term-char" fill="#00c9ff">│</text>
<text x="987" y="385" class="term-char" fill="#00c9ff">│</text>
<text x="35" y="401" class="term-char" fill="#00c9ff">│</text>
<text x="987" y="401" class="term-char" fill="#00c9ff">│</text>
<text x="35" y="417" class="term-char" fill="#00c9ff">│</text>
<text x="987" y="417" class="term-char" fill="#00c9ff">│</text>
<text x="35" y="433" class="term-char" fill="#00c9ff">│</text>
<text x="987" y="433" class="term-char" fill="#00c9ff">│</text>
<text x="35" y="449" class="term-char" fill="#00c9ff">│</text>
<text x="987" y="449" class="term-char" fill="#00c9ff">│</text>
<text x="35" y="465" class="term-char" fill="#00c9ff">│</text>
<text x="987" y="465" class="term-char" fill="#00c9ff">│</text>
<text x="35" y="481" class="term-char" fill="#00c9ff">│</text>
<text x="987" y="481" class="term-char" fill="#00c9ff">│</text>
<text x="35" y="497" class="term-char" fill="#00c9ff">│</text>
<text x="987" y="497" class="term-char" fill="#00c9ff">│</text>
<text x="35" y="513" class="term-char" fill="#00c9ff">│</text>
<text x="987" y="513" class="term-char" fill="#00c9ff">│</text>
<text x="35" y="529" class="term-char" fill="#00c9ff">│</text>
<text x="987" y="529" class="term-char" fill="#00c9ff">│</text>
<text x="35" y="545" class="term-char" fill="#00c9ff">│</text>
<text x="987" y="545" class="term-char" fill="#00c9ff">│</text>
<text x="35" y="561" class="term-char" fill="#00c9ff">│</text>
<text x="987" y="561" class="term-char" fill="#00c9ff">│</text>
<text x="35" y="577" class="term-char" fill="#00c9ff">│</text>
<text x="987" y="577" class="term-char" fill="#00c9ff">│</text>
<text x="35" y="593" class="term-char" fill="#00c9ff">│</text>
<text x="987" y="593" class="term-char" fill="#00c9ff">│</text>
<text x="35" y="609" class="term-char" fill="#00c9ff">│</text>
<text x="987" y="609" class="term-char" fill="#00c9ff">│</text>
<text x="35" y="625" class="term-char" fill="#00c9ff">│</text>
<text x="987" y="625" class="term-char" fill="#00c9ff">│</text>
<text x="35" y="641" class="term-char" fill="#00c9ff">│</text>
<text x="987" y="641" class="term-char" fill="#00c9ff">│</text>
<text x="35" y="657" class="term-char" fill="#00c9ff">│</text>
<text x="987" y="657" class="term-char" fill="#00c9ff">│</text>
<text x="35" y="673" class="term-char" fill="#00c9ff">│</text>
<text x="987" y="673" class="term-char" fill="#00c9ff">│</text>
<text x="35" y="689" class="term-char" fill="#00c9ff">└</text>
<text x="43" y="689" class="term-char" fill="#00c9ff">─</text>
<text x="51" y="689" class="term-char" fill="#00c9ff">─</text>
<text x="59" y="689" class="term-char" fill="#00c9ff">─</text>
<text x="67" y="689" class="term-char" fill="#00c9ff">─</text>
<text x="75" y="689" class="term-char" fill="#00c9ff">─</text>
<text x="83" y="689" class="term-char" fill="#00c9ff">─</text>
<text x="91" y="689" class="term-char" fill="#00c9ff">─</text>
<text x="99" y="689" class="term-char" fill="#00c9ff">─</text>
<text x="107" y="689" class="term-char" fill="#00c9ff">─</text>
<text x="115" y="689" class="term-char" fill="#00c9ff">─</text>
<text x="123" y="689" class="term-char" fill="#00c9ff">─</text>
<text x="131" y="689" class="term-char" fill="#00c9ff">─</text>
<text x="139" y="689" class="term-char" fill="#00c9ff">─</text>
<text x="147" y="689" class="term-char" fill="#00c9ff">─</text>
<text x="155" y="689" class="term-char" fill="#00c9ff">─</text>
<text x="163" y="689" class="term-char" fill="#00c9ff">─</text>
<text x="171" y="689" class="term-char" fill="#00c9ff">─</text>
<text x="179" y="689" class="term-char" fill="#00c9ff">─</text>
<text x="187" y="689" class="term-char" fill="#00c9ff">─</text>
<text x="195" y="689" class="term-char" fill="#00c9ff">─</text>
<text x="203" y="689" class="term-char" fill="#00c9ff">─</text>
<text x="211" y="689" class="term-char" fill="#00c9ff">─</text>
<text x="219" y="689" class="term-char" fill="#00c9ff">─</text>
<text x="227" y="689" class="term-char" fill="#00c9ff">─</text>
<text x="235" y="689" class="term-char" fill="#00c9ff">─</text>
<text x="243" y="689" class="term-char" fill="#00c9ff">─</text>
<text x="251" y="689" class="term-char" fill="#00c9ff">─</text>
<text x="259" y="689" class="term-char" fill="#00c9ff">─</text>
<text x="267" y="689" class="term-char" fill="#00c9ff">─</text>
<text x="275" y="689" class="term-char" fill="#00c9ff">─</text>
<text x="283" y="689" class="term-char" fill="#00c9ff">─</text>
<text x="291" y="689" class="term-char" fill="#00c9ff">─</text>
<text x="299" y="689" class="term-char" fill="#00c9ff">─</text>
<text x="307" y="689" class="term-char" fill="#00c9ff">─</text>
<text x="315" y="689" class="term-char" fill="#00c9ff">─</text>
<text x="323" y="689" class="term-char" fill="#00c9ff">─</text>
<text x="331" y="689" class="term-char" fill="#00c9ff">─</text>
<text x="339" y="689" class="term-char" fill="#00c9ff">─</text>
<text x="347" y="689" class="term-char" fill="#00c9ff">─</text>
<text x="355" y="689" class="term-char" fill="#00c9ff">─</text>
<text x="363" y="689" class="term-char" fill="#00c9ff">─</text>
<text x="371" y="689" class="term-char" fill="#00c9ff">─</text>
<text x="379" y="689" class="term-char" fill="#00c9ff">─</text>
<text x="387" y="689" class="term-char" fill="#00c9ff">─</text>
<text x="395" y="689" class="term-char" fill="#00c9ff">─</text>
<text x="403" y="689" class="term-char" fill="#00c9ff">─</text>
<text x="411" y="689" class="term-char" fill="#00c9ff">─</text>
<text x="419" y="689" class="term-char" fill="#00c9ff">─</text>
<text x="427" y="689" class="term-char" fill="#00c9ff">─</text>
<text x="435" y="689" class="term-char" fill="#00c9ff">─</text>
<text x="443" y="689" class="term-char" fill="#00c9ff">─</text>
<text x="451" y="689" class="term-char" fill="#00c9ff">─</text>
<text x="459" y="689" class="term-char" fill="#00c9ff">─</text>
<text x="467" y="689" class="term-char" fill="#00c9ff">─</text>
<text x="475" y="689" class="term-char" fill="#00c9ff">─</text>
<text x="483" y="689" class="term-char" fill="#00c9ff">─</text>
<text x="491" y="689" class="term-char" fill="#00c9ff">─</text>
<text x="499" y="689" class="term-char" fill="#00c9ff">─</text>
<text x="507" y="689" class="term-char" fill="#00c9ff">─</text>
<text x="515" y="689" class="term-char" fill="#00c9ff">─</text>
<text x="523" y="689" class="term-char" fill="#00c9ff">─</text>
<text x="531" y="689" class="term-char" fill="#00c9ff">─</text>
<text x="539" y="689" class="term-char" fill="#00c9ff">─</text>
<text x="547" y="689" class="term-char" fill="#00c9ff">─</text>
<text x="555" y="689" class="term-char" fill="#00c9ff">─</text>
<text x="563" y="689" class="term-char" fill="#00c9ff">─</text>
<text x="571" y="689" class="term-char" fill="#00c9ff">─</text>
<text x="579" y="689" class="term-char" fill="#00c9ff">─</text>
<text x="587" y="689" class="term-char" fill="#00c9ff">─</text>
<text x="595" y="689" class="term-char" fill="#00c9ff">─</text>
<text x="603" y="689" class="term-char" fill="#00c9ff">─</text>
<text x="611" y="689" class="term-char" fill="#00c9ff">─</text>
<text x="619" y="689" class="term-char" fill="#00c9ff">─</text>
<text x="627" y="689" class="term-char" fill="#00c9ff">─</text>
<text x="635" y="689" class="term-char" fill="#00c9ff">─</text>
<text x="643" y="689" class="term-char" fill="#00c9ff">─</text>
<text x="651" y="689" class="term-char" fill="#00c9ff">─</text>
<text x="659" y="689" class="term-char" fill="#00c9ff">─</text>
<text x="667" y="689" class="term-char" fill="#00c9ff">─</text>
<text x="675" y="689" class="term-char" fill="#00c9ff">─</text>
<text x="683" y="689" class="term-char" fill="#00c9ff">─</text>
<text x="691" y="689" class="term-char" fill="#00c9ff">─</text>
<text x="699" y="689" class="term-char" fill="#00c9ff">─</text>
<text x="707" y="689" class="term-char" fill="#00c9ff">─</text>
<text x="715" y="689" class="term-char" fill="#00c9ff">─</text>
<text x="723" y="689" class="term-char" fill="#00c9ff">─</text>
<text x="731" y="689" class="term-char" fill="#00c9ff">─</text>
<text x="739" y="689" class="term-char" fill="#00c9ff">─</text>
<text x="747" y="689" class="term-char" fill="#00c9ff">─</text>
<text x="755" y="689" class="term-char" fill="#00c9ff">─</text>
<text x="763" y="689" class="term-char" fill="#00c9ff">─</text>
<text x="771" y="689" class="term-char" fill="#00c9ff">─</text>
<text x="779" y="689" class="term-char" fill="#00c9ff">─</text>
<text x="787" y="689" class="term-char" fill="#00c9ff">─</text>
<text x="795" y="689" class="term-char" fill="#00c9ff">─</text>
<text x="803" y="689" class="term-char" fill="#00c9ff">─</text>
<text x="811" y="689" class="term-char" fill="#00c9ff">─</text>
<text x="819" y="689" class="term-char" fill="#00c9ff">─</text>
<text x="827" y="689" class="term-char" fill="#00c9ff">─</text>
<text x="835" y="689" class="term-char" fill="#00c9ff">─</text>
<text x="843" y="689" class="term-char" fill="#00c9ff">─</text>
<text x="851" y="689" class="term-char" fill="#00c9ff">─</text>
<text x="859" y="689" class="term-char" fill="#00c9ff">─</text>
<text x="867" y="689" class="term-char" fill="#00c9ff">─</text>
<text x="875" y="689" class="term-char" fill="#00c9ff">─</text>
<text x="883" y="689" class="term-char" fill="#00c9ff">─</text>
<text x="891" y="689" class="term-char" fill="#00c9ff">─</text>
<text x="899" y="689" class="term-char" fill="#00c9ff">─</text>
<text x="907" y="689" class="term-char" fill="#00c9ff">─</text>
<text x="915" y="689" class="term-char" fill="#00c9ff">─</text>
<text x="923" y="689" class="term-char" fill="#00c9ff">─</text>
<text x="931" y="689" class="term-char" fill="#00c9ff">─</text>
<text x="939" y="689" class="term-char" fill="#00c9ff">─</text>
<text x="947" y="689" class="term-char" fill="#00c9ff">─</text>
<text x="955" y="689" class="term-char" fill="#00c9ff">─</text>
<text x="963" y="689" class="term-char" fill="#00c9ff">─</text>
<text x="971" y="689" class="term-char" fill="#00c9ff">─</text>
<text x="979" y="689" class="term-char" fill="#00c9ff">─</text>
<text x="987" y="689" class="term-char" fill="#00c9ff">┘</text>
</svg>