<?xml version="1.0" encoding="UTF-8" standalone="no"?>
<!DOCTYPE svg PUBLIC "-//W3C//DTD SVG 1.1//EN"
 "http://www.w3.org/Graphics/SVG/1.1/DTD/svg11.dtd">
<!-- Generated by graphviz version 2.43.0 (0)
 -->
<!-- Title: architecture Pages: 1 -->
<svg width="773pt" height="268pt"
 viewBox="0.00 0.00 773.00 268.00" xmlns="http://www.w3.org/2000/svg" xmlns:xlink="http://www.w3.org/1999/xlink">
<g id="graph0" class="graph" transform="scale(1 1) rotate(0) translate(4 264)">
<title>architecture</title>
<polygon fill="white" stroke="transparent" points="-4,4 -4,-264 769,-264 769,4 -4,4"/>
<!-- main -->
<g id="node1" class="node">
<title>main</title>
<path fill="#e8f4f8" stroke="black" d="M335.5,-260C335.5,-260 219.5,-260 219.5,-260 213.5,-260 207.5,-254 207.5,-248 207.5,-248 207.5,-234 207.5,-234 207.5,-228 213.5,-222 219.5,-222 219.5,-222 335.5,-222 335.5,-222 341.5,-222 347.5,-228 347.5,-234 347.5,-234 347.5,-248 347.5,-248 347.5,-254 341.5,-260 335.5,-260"/>
<text text-anchor="middle" x="277.5" y="-244.8" font-family="Times,serif" font-size="14.00">main.rs</text>
<text text-anchor="middle" x="277.5" y="-229.8" font-family="Times,serif" font-size="14.00">(entry, mode dispatch)</text>
</g>
<!-- cli -->
<g id="node2" class="node">
<title>cli</title>
<path fill="#e8f4f8" stroke="black" d="M87,-186C87,-186 12,-186 12,-186 6,-186 0,-180 0,-174 0,-174 0,-160 0,-160 0,-154 6,-148 12,-148 12,-148 87,-148 87,-148 93,-148 99,-154 99,-160 99,-160 99,-174 99,-174 99,-180 93,-186 87,-186"/>
<text text-anchor="middle" x="49.5" y="-170.8" font-family="Times,serif" font-size="14.00">cli.rs</text>
<text text-anchor="middle" x="49.5" y="-155.8" font-family="Times,serif" font-size="14.00">(Args, parsing)</text>
</g>
<!-- main&#45;&gt;cli -->
<g id="edge1" class="edge">
<title>main&#45;&gt;cli</title>
<path fill="none" stroke="black" d="M220.26,-221.92C186.28,-211.19 143.28,-197.61 108.92,-186.77"/>
<polygon fill="black" stroke="black" points="109.61,-183.31 99.02,-183.64 107.5,-189.99 109.61,-183.31"/>
</g>
<!-- app -->
<g id="node3" class="node">
<title>app</title>
<path fill="#e8f4f8" stroke="black" d="M388,-186C388,-186 299,-186 299,-186 293,-186 287,-180 287,-174 287,-174 287,-160 287,-160 287,-154 293,-148 299,-148 299,-148 388,-148 388,-148 394,-148 400,-154 400,-160 400,-160 400,-174 400,-174 400,-180 394,-186 388,-186"/>
<text text-anchor="middle" x="343.5" y="-170.8" font-family="Times,serif" font-size="14.00">app.rs</text>
<text text-anchor="middle" x="343.5" y="-155.8" font-family="Times,serif" font-size="14.00">(App state, FSM)</text>
</g>
<!-- main&#45;&gt;app -->
<g id="edge2" class="edge">
<title>main&#45;&gt;app</title>
<path fill="none" stroke="black" d="M294.15,-221.83C301.91,-213.37 311.28,-203.15 319.76,-193.9"/>
<polygon fill="black" stroke="black" points="322.44,-196.15 326.62,-186.41 317.28,-191.42 322.44,-196.15"/>
</g>
<!-- sysinfo -->
<g id="node4" class="node">
<title>sysinfo</title>
<path fill="#e8f4f8" stroke="black" d="M257,-186C257,-186 168,-186 168,-186 162,-186 156,-180 156,-174 156,-174 156,-160 156,-160 156,-154 162,-148 168,-148 168,-148 257,-148 257,-148 263,-148 269,-154 269,-160 269,-160 269,-174 269,-174 269,-180 263,-186 257,-186"/>
<text text-anchor="middle" x="212.5" y="-170.8" font-family="Times,serif" font-size="14.00">sysinfo.rs</text>
<text text-anchor="middle" x="212.5" y="-155.8" font-family="Times,serif" font-size="14.00">(CPU/RAM info)</text>
</g>
<!-- main&#45;&gt;sysinfo -->
<g id="edge3" class="edge">
<title>main&#45;&gt;sysinfo</title>
<path fill="none" stroke="black" d="M261.1,-221.83C253.46,-213.37 244.23,-203.15 235.88,-193.9"/>
<polygon fill="black" stroke="black" points="238.42,-191.49 229.12,-186.41 233.23,-196.18 238.42,-191.49"/>
</g>
<!-- ui -->
<g id="node5" class="node">
<title>ui</title>
<path fill="#e8f4f8" stroke="black" d="M656,-186C656,-186 579,-186 579,-186 573,-186 567,-180 567,-174 567,-174 567,-160 567,-160 567,-154 573,-148 579,-148 579,-148 656,-148 656,-148 662,-148 668,-154 668,-160 668,-160 668,-174 668,-174 668,-180 662,-186 656,-186"/>
<text text-anchor="middle" x="617.5" y="-170.8" font-family="Times,serif" font-size="14.00">ui/mod.rs</text>
<text text-anchor="middle" x="617.5" y="-155.8" font-family="Times,serif" font-size="14.00">(render_screen)</text>
</g>
<!-- main&#45;&gt;ui -->
<g id="edge4" class="edge">
<title>main&#45;&gt;ui</title>
<path fill="none" stroke="black" d="M347.52,-228.67C402.31,-219.32 480.52,-204.9 556.95,-186.27"/>
<polygon fill="black" stroke="black" points="557.87,-189.65 566.75,-183.86 556.2,-182.85 557.87,-189.65"/>
</g>
<!-- report -->
<g id="node6" class="node">
<title>report</title>
<path fill="#e8f4f8" stroke="black" d="M537,-186C537,-186 430,-186 430,-186 424,-186 418,-180 418,-174 418,-174 418,-160 418,-160 418,-154 424,-148 430,-148 430,-148 537,-148 537,-148 543,-148 549,-154 549,-160 549,-160 549,-174 549,-174 549,-180 543,-186 537,-186"/>
<text text-anchor="middle" x="483.5" y="-170.8" font-family="Times,serif" font-size="14.00">report.rs</text>
<text text-anchor="middle" x="483.5" y="-155.8" font-family="Times,serif" font-size="14.00">(JSON/CSV/HTML)</text>
</g>
<!-- main&#45;&gt;report -->
<g id="edge5" class="edge">
<title>main&#45;&gt;report</title>
<path fill="none" stroke="black" d="M329.22,-221.92C357.38,-212.08 392.41,-199.84 421.97,-189.51"/>
<polygon fill="black" stroke="black" points="423.48,-192.69 431.76,-186.08 421.17,-186.08 423.48,-192.69"/>
</g>
<!-- bench_mod -->
<g id="node10" class="node">
<title>bench_mod</title>
<path fill="#e8f4f8" stroke="black" d="M289.5,-112C289.5,-112 181.5,-112 181.5,-112 175.5,-112 169.5,-106 169.5,-100 169.5,-100 169.5,-86 169.5,-86 169.5,-80 175.5,-74 181.5,-74 181.5,-74 289.5,-74 289.5,-74 295.5,-74 301.5,-80 301.5,-86 301.5,-86 301.5,-100 301.5,-100 301.5,-106 295.5,-112 289.5,-112"/>
<text text-anchor="middle" x="235.5" y="-96.8" font-family="Times,serif" font-size="14.00">bench/mod.rs</text>
<text text-anchor="middle" x="235.5" y="-81.8" font-family="Times,serif" font-size="14.00">(BenchMsg, Results)</text>
</g>
<!-- main&#45;&gt;bench_mod -->
<g id="edge6" class="edge">
<title>main&#45;&gt;bench_mod</title>
<path fill="none" stroke="black" d="M207.47,-227.52C184.09,-219.66 160.46,-206.85 146.5,-186 137.11,-171.97 138.22,-162.72 146.5,-148 153.7,-135.2 165.3,-125.09 177.77,-117.25"/>
<polygon fill="black" stroke="black" points="179.62,-120.22 186.51,-112.17 176.1,-114.17 179.62,-120.22"/>
</g>
<!-- app&#45;&gt;bench_mod -->
<g id="edge7" class="edge">
<title>app&#45;&gt;bench_mod</title>
<path fill="none" stroke="black" d="M316.25,-147.83C302.56,-138.71 285.81,-127.54 271.12,-117.74"/>
<polygon fill="black" stroke="black" points="273.01,-114.8 262.74,-112.16 269.12,-120.62 273.01,-114.8"/>
</g>
<!-- ui_overview -->
<g id="node11" class="node">
<title>ui_overview</title>
<path fill="#e8f4f8" stroke="black" d="M551.5,-111C551.5,-111 481.5,-111 481.5,-111 475.5,-111 469.5,-105 469.5,-99 469.5,-99 469.5,-87 469.5,-87 469.5,-81 475.5,-75 481.5,-75 481.5,-75 551.5,-75 551.5,-75 557.5,-75 563.5,-81 563.5,-87 563.5,-87 563.5,-99 563.5,-99 563.5,-105 557.5,-111 551.5,-111"/>
<text text-anchor="middle" x="516.5" y="-89.3" font-family="Times,serif" font-size="14.00">ui/overview.rs</text>
</g>
<!-- ui&#45;&gt;ui_overview -->
<g id="edge8" class="edge">
<title>ui&#45;&gt;ui_overview</title>
<path fill="none" stroke="black" d="M592.01,-147.83C578.95,-138.52 562.89,-127.07 548.95,-117.13"/>
<polygon fill="black" stroke="black" points="550.76,-114.13 540.59,-111.17 546.7,-119.83 550.76,-114.13"/>
</g>
<!-- ui_disks -->
<g id="node12" class="node">
<title>ui_disks</title>
<path fill="#e8f4f8" stroke="black" d="M641.5,-111C641.5,-111 593.5,-111 593.5,-111 587.5,-111 581.5,-105 581.5,-99 581.5,-99 581.5,-87 581.5,-87 581.5,-81 587.5,-75 593.5,-75 593.5,-75 641.5,-75 641.5,-75 647.5,-75 653.5,-81 653.5,-87 653.5,-87 653.5,-99 653.5,-99 653.5,-105 647.5,-111 641.5,-111"/>
<text text-anchor="middle" x="617.5" y="-89.3" font-family="Times,serif" font-size="14.00">ui/disks.rs</text>
</g>
<!-- ui&#45;&gt;ui_disks -->
<g id="edge9" class="edge">
<title>ui&#45;&gt;ui_disks</title>
<path fill="none" stroke="black" d="M617.5,-147.83C617.5,-139.89 617.5,-130.41 617.5,-121.63"/>
<polygon fill="black" stroke="black" points="621,-121.42 617.5,-111.42 614,-121.42 621,-121.42"/>
</g>
<!-- ui_common -->
<g id="node13" class="node">
<title>ui_common</title>
<path fill="#e8f4f8" stroke="black" d="M753,-111C753,-111 684,-111 684,-111 678,-111 672,-105 672,-99 672,-99 672,-87 672,-87 672,-81 678,-75 684,-75 684,-75 753,-75 753,-75 759,-75 765,-81 765,-87 765,-87 765,-99 765,-99 765,-105 759,-111 753,-111"/>
<text text-anchor="middle" x="718.5" y="-89.3" font-family="Times,serif" font-size="14.00">ui/common.rs</text>
</g>
<!-- ui&#45;&gt;ui_common -->
<g id="edge10" class="edge">
<title>ui&#45;&gt;ui_common</title>
<path fill="none" stroke="black" d="M642.99,-147.83C656.05,-138.52 672.11,-127.07 686.05,-117.13"/>
<polygon fill="black" stroke="black" points="688.3,-119.83 694.41,-111.17 684.24,-114.13 688.3,-119.83"/>
</g>
<!-- bench_cpu -->
<g id="node7" class="node">
<title>bench_cpu</title>
<path fill="#e8f4f8" stroke="black" d="M146,-38C146,-38 77,-38 77,-38 71,-38 65,-32 65,-26 65,-26 65,-12 65,-12 65,-6 71,0 77,0 77,0 146,0 146,0 152,0 158,-6 158,-12 158,-12 158,-26 158,-26 158,-32 152,-38 146,-38"/>
<text text-anchor="middle" x="111.5" y="-22.8" font-family="Times,serif" font-size="14.00">bench/cpu.rs</text>
<text text-anchor="middle" x="111.5" y="-7.8" font-family="Times,serif" font-size="14.00">(CPU MOPS)</text>
</g>
<!-- bench_mem -->
<g id="node8" class="node">
<title>bench_mem</title>
<path fill="#e8f4f8" stroke="black" d="M283,-38C283,-38 188,-38 188,-38 182,-38 176,-32 176,-26 176,-26 176,-12 176,-12 176,-6 182,0 188,0 188,0 283,0 283,0 289,0 295,-6 295,-12 295,-12 295,-26 295,-26 295,-32 289,-38 283,-38"/>
<text text-anchor="middle" x="235.5" y="-22.8" font-family="Times,serif" font-size="14.00">bench/mem.rs</text>
<text text-anchor="middle" x="235.5" y="-7.8" font-family="Times,serif" font-size="14.00">(Mem throughput)</text>
</g>
<!-- bench_disk -->
<g id="node9" class="node">
<title>bench_disk</title>
<path fill="#e8f4f8" stroke="black" d="M396,-38C396,-38 325,-38 325,-38 319,-38 313,-32 313,-26 313,-26 313,-12 313,-12 313,-6 319,0 325,0 325,0 396,0 396,0 402,0 408,-6 408,-12 408,-12 408,-26 408,-26 408,-32 402,-38 396,-38"/>
<text text-anchor="middle" x="360.5" y="-22.8" font-family="Times,serif" font-size="14.00">bench/disk.rs</text>
<text text-anchor="middle" x="360.5" y="-7.8" font-family="Times,serif" font-size="14.00">(Linear+Seek)</text>
</g>
<!-- bench_mod&#45;&gt;bench_cpu -->
<g id="edge11" class="edge">
<title>bench_mod&#45;&gt;bench_cpu</title>
<path fill="none" stroke="black" d="M204.21,-73.83C188.2,-64.54 168.54,-53.12 151.45,-43.2"/>
<polygon fill="black" stroke="black" points="153.19,-40.16 142.78,-38.16 149.67,-46.21 153.19,-40.16"/>
</g>
<!-- bench_mod&#45;&gt;bench_mem -->
<g id="edge12" class="edge">
<title>bench_mod&#45;&gt;bench_mem</title>
<path fill="none" stroke="black" d="M235.5,-73.83C235.5,-66.13 235.5,-56.97 235.5,-48.42"/>
<polygon fill="black" stroke="black" points="239,-48.41 235.5,-38.41 232,-48.41 239,-48.41"/>
</g>
<!-- bench_mod&#45;&gt;bench_disk -->
<g id="edge13" class="edge">
<title>bench_mod&#45;&gt;bench_disk</title>
<path fill="none" stroke="black" d="M267.04,-73.83C283.18,-64.54 303,-53.12 320.23,-43.2"/>
<polygon fill="black" stroke="black" points="322.05,-46.19 328.97,-38.16 318.56,-40.12 322.05,-46.19"/>
</g>
</g>
</svg>
