<?xml version="1.0" encoding="UTF-8" standalone="no"?>
<!DOCTYPE svg PUBLIC "-//W3C//DTD SVG 1.1//EN"
 "http://www.w3.org/Graphics/SVG/1.1/DTD/svg11.dtd">
<!-- Generated by graphviz version 2.43.0 (0)
 -->
<!-- Title: data_flow Pages: 1 -->
<svg width="670pt" height="581pt"
 viewBox="0.00 0.00 670.00 581.00" xmlns="http://www.w3.org/2000/svg" xmlns:xlink="http://www.w3.org/1999/xlink">
<g id="graph0" class="graph" transform="scale(1 1) rotate(0) translate(4 577)">
<title>data_flow</title>
<polygon fill="white" stroke="transparent" points="-4,4 -4,-577 666,-577 666,4 -4,4"/>
<!-- cli_parse -->
<g id="node1" class="node">
<title>cli_parse</title>
<path fill="#f0e8f4" stroke="black" d="M292.5,-573C292.5,-573 134.5,-573 134.5,-573 128.5,-573 122.5,-567 122.5,-561 122.5,-561 122.5,-547 122.5,-547 122.5,-541 128.5,-535 134.5,-535 134.5,-535 292.5,-535 292.5,-535 298.5,-535 304.5,-541 304.5,-547 304.5,-547 304.5,-561 304.5,-561 304.5,-567 298.5,-573 292.5,-573"/>
<text text-anchor="middle" x="213.5" y="-557.8" font-family="Times,serif" font-size="14.00">CLI Parse</text>
<text text-anchor="middle" x="213.5" y="-542.8" font-family="Times,serif" font-size="14.00">(&#45;&#45;dump, &#45;t1, &#45;T, &#45;&#45;screenshot)</text>
</g>
<!-- dispatch -->
<g id="node2" class="node">
<title>dispatch</title>
<path fill="#f0e8f4" stroke="black" d="M252,-497C252,-497 175,-497 175,-497 169,-497 163,-491 163,-485 163,-485 163,-473 163,-473 163,-467 169,-461 175,-461 175,-461 252,-461 252,-461 258,-461 264,-467 264,-473 264,-473 264,-485 264,-485 264,-491 258,-497 252,-497"/>
<text text-anchor="middle" x="213.5" y="-475.3" font-family="Times,serif" font-size="14.00">Mode Dispatch</text>
</g>
<!-- cli_parse&#45;&gt;dispatch -->
<g id="edge1" class="edge">
<title>cli_parse&#45;&gt;dispatch</title>
<path fill="none" stroke="black" d="M213.5,-534.96C213.5,-526.7 213.5,-516.74 213.5,-507.57"/>
<polygon fill="black" stroke="black" points="217,-507.33 213.5,-497.33 210,-507.33 217,-507.33"/>
</g>
<!-- tui -->
<g id="node3" class="node">
<title>tui</title>
<path fill="#f0e8f4" stroke="black" d="M89,-422C89,-422 12,-422 12,-422 6,-422 0,-416 0,-410 0,-410 0,-398 0,-398 0,-392 6,-386 12,-386 12,-386 89,-386 89,-386 95,-386 101,-392 101,-398 101,-398 101,-410 101,-410 101,-416 95,-422 89,-422"/>
<text text-anchor="middle" x="50.5" y="-400.3" font-family="Times,serif" font-size="14.00">TUI Interactive</text>
</g>
<!-- dispatch&#45;&gt;tui -->
<g id="edge2" class="edge">
<title>dispatch&#45;&gt;tui</title>
<path fill="none" stroke="black" d="M175.28,-460.88C152.09,-450.5 122.3,-437.16 97.65,-426.12"/>
<polygon fill="black" stroke="black" points="99.03,-422.9 88.48,-422.01 96.17,-429.29 99.03,-422.9"/>
</g>
<!-- test -->
<g id="node4" class="node">
<title>test</title>
<path fill="#f0e8f4" stroke="black" d="M183.5,-423C183.5,-423 131.5,-423 131.5,-423 125.5,-423 119.5,-417 119.5,-411 119.5,-411 119.5,-397 119.5,-397 119.5,-391 125.5,-385 131.5,-385 131.5,-385 183.5,-385 183.5,-385 189.5,-385 195.5,-391 195.5,-397 195.5,-397 195.5,-411 195.5,-411 195.5,-417 189.5,-423 183.5,-423"/>
<text text-anchor="middle" x="157.5" y="-407.8" font-family="Times,serif" font-size="14.00">Test Mode</text>
<text text-anchor="middle" x="157.5" y="-392.8" font-family="Times,serif" font-size="14.00">(&#45;t1/&#45;T)</text>
</g>
<!-- dispatch&#45;&gt;test -->
<g id="edge3" class="edge">
<title>dispatch&#45;&gt;test</title>
<path fill="none" stroke="black" d="M200.23,-460.7C193.52,-451.96 185.25,-441.17 177.77,-431.42"/>
<polygon fill="black" stroke="black" points="180.32,-429 171.46,-423.19 174.77,-433.26 180.32,-429"/>
</g>
<!-- screenshot -->
<g id="node5" class="node">
<title>screenshot</title>
<path fill="#f0e8f4" stroke="black" d="M313.5,-422C313.5,-422 225.5,-422 225.5,-422 219.5,-422 213.5,-416 213.5,-410 213.5,-410 213.5,-398 213.5,-398 213.5,-392 219.5,-386 225.5,-386 225.5,-386 313.5,-386 313.5,-386 319.5,-386 325.5,-392 325.5,-398 325.5,-398 325.5,-410 325.5,-410 325.5,-416 319.5,-422 313.5,-422"/>
<text text-anchor="middle" x="269.5" y="-400.3" font-family="Times,serif" font-size="14.00">Screenshot Mode</text>
</g>
<!-- dispatch&#45;&gt;screenshot -->
<g id="edge4" class="edge">
<title>dispatch&#45;&gt;screenshot</title>
<path fill="none" stroke="black" d="M226.77,-460.7C233.75,-451.61 242.42,-440.3 250.13,-430.25"/>
<polygon fill="black" stroke="black" points="253.01,-432.24 256.32,-422.18 247.46,-427.98 253.01,-432.24"/>
</g>
<!-- dump -->
<g id="node6" class="node">
<title>dump</title>
<path fill="#f0e8f4" stroke="black" d="M419,-423C419,-423 356,-423 356,-423 350,-423 344,-417 344,-411 344,-411 344,-397 344,-397 344,-391 350,-385 356,-385 356,-385 419,-385 419,-385 425,-385 431,-391 431,-397 431,-397 431,-411 431,-411 431,-417 425,-423 419,-423"/>
<text text-anchor="middle" x="387.5" y="-407.8" font-family="Times,serif" font-size="14.00">Dump Mode</text>
<text text-anchor="middle" x="387.5" y="-392.8" font-family="Times,serif" font-size="14.00">(&#45;&#45;dump)</text>
</g>
<!-- dispatch&#45;&gt;dump -->
<g id="edge5" class="edge">
<title>dispatch&#45;&gt;dump</title>
<path fill="none" stroke="black" d="M254.3,-460.88C278.45,-450.75 309.3,-437.81 335.22,-426.93"/>
<polygon fill="black" stroke="black" points="336.67,-430.12 344.53,-423.03 333.96,-423.67 336.67,-430.12"/>
</g>
<!-- event_loop -->
<g id="node11" class="node">
<title>event_loop</title>
<path fill="#f0e8f4" stroke="black" d="M317,-348C317,-348 228,-348 228,-348 222,-348 216,-342 216,-336 216,-336 216,-322 216,-322 216,-316 222,-310 228,-310 228,-310 317,-310 317,-310 323,-310 329,-316 329,-322 329,-322 329,-336 329,-336 329,-342 323,-348 317,-348"/>
<text text-anchor="middle" x="272.5" y="-332.8" font-family="Times,serif" font-size="14.00">Main Event Loop</text>
<text text-anchor="middle" x="272.5" y="-317.8" font-family="Times,serif" font-size="14.00">(key/msg recv)</text>
</g>
<!-- tui&#45;&gt;event_loop -->
<g id="edge6" class="edge">
<title>tui&#45;&gt;event_loop</title>
<path fill="none" stroke="black" d="M101.15,-386.34C132.72,-375.96 173.64,-362.51 207.57,-351.35"/>
<polygon fill="black" stroke="black" points="208.99,-354.57 217.4,-348.12 206.81,-347.92 208.99,-354.57"/>
</g>
<!-- thread_cpu -->
<g id="node7" class="node">
<title>thread_cpu</title>
<path fill="#f0e8f4" stroke="black" d="M424.5,-497C424.5,-497 364.5,-497 364.5,-497 358.5,-497 352.5,-491 352.5,-485 352.5,-485 352.5,-473 352.5,-473 352.5,-467 358.5,-461 364.5,-461 364.5,-461 424.5,-461 424.5,-461 430.5,-461 436.5,-467 436.5,-473 436.5,-473 436.5,-485 436.5,-485 436.5,-491 430.5,-497 424.5,-497"/>
<text text-anchor="middle" x="394.5" y="-475.3" font-family="Times,serif" font-size="14.00">CPU Thread</text>
</g>
<!-- channel -->
<g id="node10" class="node">
<title>channel</title>
<path fill="#f0e8f4" stroke="black" d="M539,-423C539,-423 468,-423 468,-423 462,-423 456,-417 456,-411 456,-411 456,-397 456,-397 456,-391 462,-385 468,-385 468,-385 539,-385 539,-385 545,-385 551,-391 551,-397 551,-397 551,-411 551,-411 551,-417 545,-423 539,-423"/>
<text text-anchor="middle" x="503.5" y="-407.8" font-family="Times,serif" font-size="14.00">mpsc Channel</text>
<text text-anchor="middle" x="503.5" y="-392.8" font-family="Times,serif" font-size="14.00">BenchMsg</text>
</g>
<!-- thread_cpu&#45;&gt;channel -->
<g id="edge7" class="edge">
<title>thread_cpu&#45;&gt;channel</title>
<path fill="none" stroke="black" d="M420.06,-460.88C434.39,-451.28 452.49,-439.16 468.16,-428.67"/>
<polygon fill="black" stroke="black" points="470.22,-431.5 476.58,-423.03 466.33,-425.68 470.22,-431.5"/>
</g>
<!-- thread_mem -->
<g id="node8" class="node">
<title>thread_mem</title>
<path fill="#f0e8f4" stroke="black" d="M548.5,-497C548.5,-497 466.5,-497 466.5,-497 460.5,-497 454.5,-491 454.5,-485 454.5,-485 454.5,-473 454.5,-473 454.5,-467 460.5,-461 466.5,-461 466.5,-461 548.5,-461 548.5,-461 554.5,-461 560.5,-467 560.5,-473 560.5,-473 560.5,-485 560.5,-485 560.5,-491 554.5,-497 548.5,-497"/>
<text text-anchor="middle" x="507.5" y="-475.3" font-family="Times,serif" font-size="14.00">Memory Thread</text>
</g>
<!-- thread_mem&#45;&gt;channel -->
<g id="edge8" class="edge">
<title>thread_mem&#45;&gt;channel</title>
<path fill="none" stroke="black" d="M506.55,-460.7C506.1,-452.49 505.55,-442.47 505.05,-433.2"/>
<polygon fill="black" stroke="black" points="508.54,-432.99 504.5,-423.19 501.55,-433.37 508.54,-432.99"/>
</g>
<!-- thread_disk -->
<g id="node9" class="node">
<title>thread_disk</title>
<path fill="#f0e8f4" stroke="black" d="M650,-498C650,-498 591,-498 591,-498 585,-498 579,-492 579,-486 579,-486 579,-472 579,-472 579,-466 585,-460 591,-460 591,-460 650,-460 650,-460 656,-460 662,-466 662,-472 662,-472 662,-486 662,-486 662,-492 656,-498 650,-498"/>
<text text-anchor="middle" x="620.5" y="-482.8" font-family="Times,serif" font-size="14.00">Disk Thread</text>
<text text-anchor="middle" x="620.5" y="-467.8" font-family="Times,serif" font-size="14.00">(optional)</text>
</g>
<!-- thread_disk&#45;&gt;channel -->
<g id="edge9" class="edge">
<title>thread_disk&#45;&gt;channel</title>
<path fill="none" stroke="black" d="M591.58,-459.96C576.39,-450.48 557.59,-438.75 541.27,-428.57"/>
<polygon fill="black" stroke="black" points="542.83,-425.41 532.49,-423.09 539.13,-431.35 542.83,-425.41"/>
</g>
<!-- channel&#45;&gt;event_loop -->
<g id="edge10" class="edge">
<title>channel&#45;&gt;event_loop</title>
<path fill="none" stroke="black" d="M455.92,-387.96C422.21,-377.31 376.54,-362.88 339.2,-351.08"/>
<polygon fill="black" stroke="black" points="340,-347.66 329.41,-347.98 337.89,-354.33 340,-347.66"/>
</g>
<!-- app_state -->
<g id="node12" class="node">
<title>app_state</title>
<path fill="#f0e8f4" stroke="black" d="M312,-273C312,-273 233,-273 233,-273 227,-273 221,-267 221,-261 221,-261 221,-247 221,-247 221,-241 227,-235 233,-235 233,-235 312,-235 312,-235 318,-235 324,-241 324,-247 324,-247 324,-261 324,-261 324,-267 318,-273 312,-273"/>
<text text-anchor="middle" x="272.5" y="-257.8" font-family="Times,serif" font-size="14.00">App State</text>
<text text-anchor="middle" x="272.5" y="-242.8" font-family="Times,serif" font-size="14.00">(screen, results)</text>
</g>
<!-- event_loop&#45;&gt;app_state -->
<g id="edge11" class="edge">
<title>event_loop&#45;&gt;app_state</title>
<path fill="none" stroke="black" d="M272.5,-309.96C272.5,-301.88 272.5,-292.18 272.5,-283.18"/>
<polygon fill="black" stroke="black" points="276,-283.09 272.5,-273.09 269,-283.09 276,-283.09"/>
</g>
<!-- needs_render -->
<g id="node13" class="node">
<title>needs_render</title>
<path fill="#f0e8f4" stroke="black" d="M324.5,-198C324.5,-198 220.5,-198 220.5,-198 214.5,-198 208.5,-192 208.5,-186 208.5,-186 208.5,-172 208.5,-172 208.5,-166 214.5,-160 220.5,-160 220.5,-160 324.5,-160 324.5,-160 330.5,-160 336.5,-166 336.5,-172 336.5,-172 336.5,-186 336.5,-186 336.5,-192 330.5,-198 324.5,-198"/>
<text text-anchor="middle" x="272.5" y="-182.8" font-family="Times,serif" font-size="14.00">App::needs_render()</text>
<text text-anchor="middle" x="272.5" y="-167.8" font-family="Times,serif" font-size="14.00">Conditional redraw</text>
</g>
<!-- app_state&#45;&gt;needs_render -->
<g id="edge12" class="edge">
<title>app_state&#45;&gt;needs_render</title>
<path fill="none" stroke="black" d="M272.5,-234.96C272.5,-226.88 272.5,-217.18 272.5,-208.18"/>
<polygon fill="black" stroke="black" points="276,-208.09 272.5,-198.09 269,-208.09 276,-208.09"/>
</g>
<!-- ui_render -->
<g id="node14" class="node">
<title>ui_render</title>
<path fill="#f0e8f4" stroke="black" d="M320,-109C320,-109 225,-109 225,-109 219,-109 213,-103 213,-97 213,-97 213,-85 213,-85 213,-79 219,-73 225,-73 225,-73 320,-73 320,-73 326,-73 332,-79 332,-85 332,-85 332,-97 332,-97 332,-103 326,-109 320,-109"/>
<text text-anchor="middle" x="272.5" y="-87.3" font-family="Times,serif" font-size="14.00">ui::render_screen()</text>
</g>
<!-- needs_render&#45;&gt;ui_render -->
<g id="edge13" class="edge">
<title>needs_render&#45;&gt;ui_render</title>
<path fill="none" stroke="black" d="M272.5,-159.76C272.5,-147.93 272.5,-132.32 272.5,-119.05"/>
<polygon fill="black" stroke="black" points="276,-119.04 272.5,-109.04 269,-119.04 276,-119.04"/>
<text text-anchor="middle" x="301.5" y="-130.8" font-family="Times,serif" font-size="14.00">if changed</text>
</g>
<!-- term -->
<g id="node15" class="node">
<title>term</title>
<path fill="#f0e8f4" stroke="black" d="M294,-36C294,-36 251,-36 251,-36 245,-36 239,-30 239,-24 239,-24 239,-12 239,-12 239,-6 245,0 251,0 251,0 294,0 294,0 300,0 306,-6 306,-12 306,-12 306,-24 306,-24 306,-30 300,-36 294,-36"/>
<text text-anchor="middle" x="272.5" y="-14.3" font-family="Times,serif" font-size="14.00">Terminal</text>
</g>
<!-- ui_render&#45;&gt;term -->
<g id="edge14" class="edge">
<title>ui_render&#45;&gt;term</title>
<path fill="none" stroke="black" d="M272.5,-72.81C272.5,-64.79 272.5,-55.05 272.5,-46.07"/>
<polygon fill="black" stroke="black" points="276,-46.03 272.5,-36.03 269,-46.03 276,-46.03"/>
</g>
</g>
</svg>
