<?xml version="1.0" encoding="UTF-8" standalone="no"?>
<!DOCTYPE svg PUBLIC "-//W3C//DTD SVG 1.1//EN"
 "http://www.w3.org/Graphics/SVG/1.1/DTD/svg11.dtd">
<!-- Generated by graphviz version 2.43.0 (0)
 -->
<!-- Title: disk_pipeline Pages: 1 -->
<svg width="408pt" height="735pt"
 viewBox="0.00 0.00 408.00 735.00" xmlns="http://www.w3.org/2000/svg" xmlns:xlink="http://www.w3.org/1999/xlink">
<g id="graph0" class="graph" transform="scale(1 1) rotate(0) translate(4 731)">
<title>disk_pipeline</title>
<polygon fill="white" stroke="transparent" points="-4,4 -4,-731 404,-731 404,4 -4,4"/>
<!-- open_dev -->
<g id="node1" class="node">
<title>open_dev</title>
<path fill="#f4f0e8" stroke="black" d="M233,-727C233,-727 169,-727 169,-727 163,-727 157,-721 157,-715 157,-715 157,-701 157,-701 157,-695 163,-689 169,-689 169,-689 233,-689 233,-689 239,-689 245,-695 245,-701 245,-701 245,-715 245,-715 245,-721 239,-727 233,-727"/>
<text text-anchor="middle" x="201" y="-711.8" font-family="Times,serif" font-size="14.00">Open Device</text>
<text text-anchor="middle" x="201" y="-696.8" font-family="Times,serif" font-size="14.00">/dev/sdX</text>
</g>
<!-- fadvise -->
<g id="node2" class="node">
<title>fadvise</title>
<path fill="#f4f0e8" stroke="black" d="M276,-652C276,-652 126,-652 126,-652 120,-652 114,-646 114,-640 114,-640 114,-626 114,-626 114,-620 120,-614 126,-614 126,-614 276,-614 276,-614 282,-614 288,-620 288,-626 288,-626 288,-640 288,-640 288,-646 282,-652 276,-652"/>
<text text-anchor="middle" x="201" y="-636.8" font-family="Times,serif" font-size="14.00">posix_fadvise</text>
<text text-anchor="middle" x="201" y="-621.8" font-family="Times,serif" font-size="14.00">(SEQUENTIAL/RANDOM)</text>
</g>
<!-- open_dev&#45;&gt;fadvise -->
<g id="edge1" class="edge">
<title>open_dev&#45;&gt;fadvise</title>
<path fill="none" stroke="black" d="M201,-688.96C201,-680.88 201,-671.18 201,-662.18"/>
<polygon fill="black" stroke="black" points="204.5,-662.09 201,-652.09 197.5,-662.09 204.5,-662.09"/>
</g>
<!-- linear_loop -->
<g id="node3" class="node">
<title>linear_loop</title>
<path fill="#f4f0e8" stroke="black" d="M178,-577C178,-577 86,-577 86,-577 80,-577 74,-571 74,-565 74,-565 74,-553 74,-553 74,-547 80,-541 86,-541 86,-541 178,-541 178,-541 184,-541 190,-547 190,-553 190,-553 190,-565 190,-565 190,-571 184,-577 178,-577"/>
<text text-anchor="middle" x="132" y="-555.3" font-family="Times,serif" font-size="14.00">Linear Read Loop</text>
</g>
<!-- fadvise&#45;&gt;linear_loop -->
<g id="edge2" class="edge">
<title>fadvise&#45;&gt;linear_loop</title>
<path fill="none" stroke="black" d="M183.59,-613.83C175.15,-605.02 164.88,-594.31 155.73,-584.76"/>
<polygon fill="black" stroke="black" points="158.14,-582.22 148.69,-577.42 153.08,-587.06 158.14,-582.22"/>
</g>
<!-- seek_loop -->
<g id="node4" class="node">
<title>seek_loop</title>
<path fill="#f4f0e8" stroke="black" d="M321.5,-577C321.5,-577 220.5,-577 220.5,-577 214.5,-577 208.5,-571 208.5,-565 208.5,-565 208.5,-553 208.5,-553 208.5,-547 214.5,-541 220.5,-541 220.5,-541 321.5,-541 321.5,-541 327.5,-541 333.5,-547 333.5,-553 333.5,-553 333.5,-565 333.5,-565 333.5,-571 327.5,-577 321.5,-577"/>
<text text-anchor="middle" x="271" y="-555.3" font-family="Times,serif" font-size="14.00">Random Seek Loop</text>
</g>
<!-- fadvise&#45;&gt;seek_loop -->
<g id="edge3" class="edge">
<title>fadvise&#45;&gt;seek_loop</title>
<path fill="none" stroke="black" d="M218.66,-613.83C227.23,-605.02 237.65,-594.31 246.93,-584.76"/>
<polygon fill="black" stroke="black" points="249.6,-587.03 254.07,-577.42 244.59,-582.15 249.6,-587.03"/>
</g>
<!-- linear_seek -->
<g id="node5" class="node">
<title>linear_seek</title>
<path fill="#f4f0e8" stroke="black" d="M89,-504C89,-504 59,-504 59,-504 53,-504 47,-498 47,-492 47,-492 47,-480 47,-480 47,-474 53,-468 59,-468 59,-468 89,-468 89,-468 95,-468 101,-474 101,-480 101,-480 101,-492 101,-492 101,-498 95,-504 89,-504"/>
<text text-anchor="middle" x="74" y="-482.3" font-family="Times,serif" font-size="14.00">seek()</text>
</g>
<!-- linear_loop&#45;&gt;linear_seek -->
<g id="edge4" class="edge">
<title>linear_loop&#45;&gt;linear_seek</title>
<path fill="none" stroke="black" d="M117.96,-540.81C110.91,-532.18 102.23,-521.56 94.45,-512.03"/>
<polygon fill="black" stroke="black" points="96.95,-509.56 87.91,-504.03 91.53,-513.99 96.95,-509.56"/>
</g>
<!-- seek_random -->
<g id="node10" class="node">
<title>seek_random</title>
<path fill="#f4f0e8" stroke="black" d="M280.5,-504C280.5,-504 229.5,-504 229.5,-504 223.5,-504 217.5,-498 217.5,-492 217.5,-492 217.5,-480 217.5,-480 217.5,-474 223.5,-468 229.5,-468 229.5,-468 280.5,-468 280.5,-468 286.5,-468 292.5,-474 292.5,-480 292.5,-480 292.5,-492 292.5,-492 292.5,-498 286.5,-504 280.5,-504"/>
<text text-anchor="middle" x="255" y="-482.3" font-family="Times,serif" font-size="14.00">rand offset</text>
</g>
<!-- seek_loop&#45;&gt;seek_random -->
<g id="edge11" class="edge">
<title>seek_loop&#45;&gt;seek_random</title>
<path fill="none" stroke="black" d="M267.13,-540.81C265.32,-532.79 263.12,-523.05 261.1,-514.07"/>
<polygon fill="black" stroke="black" points="264.45,-513.01 258.84,-504.03 257.62,-514.55 264.45,-513.01"/>
</g>
<!-- linear_read -->
<g id="node6" class="node">
<title>linear_read</title>
<path fill="#f4f0e8" stroke="black" d="M104,-431C104,-431 12,-431 12,-431 6,-431 0,-425 0,-419 0,-419 0,-407 0,-407 0,-401 6,-395 12,-395 12,-395 104,-395 104,-395 110,-395 116,-401 116,-407 116,-407 116,-419 116,-419 116,-425 110,-431 104,-431"/>
<text text-anchor="middle" x="58" y="-409.3" font-family="Times,serif" font-size="14.00">read(sample_size)</text>
</g>
<!-- linear_seek&#45;&gt;linear_read -->
<g id="edge5" class="edge">
<title>linear_seek&#45;&gt;linear_read</title>
<path fill="none" stroke="black" d="M70.13,-467.81C68.32,-459.79 66.12,-450.05 64.1,-441.07"/>
<polygon fill="black" stroke="black" points="67.45,-440.01 61.84,-431.03 60.62,-441.55 67.45,-440.01"/>
</g>
<!-- linear_time -->
<g id="node7" class="node">
<title>linear_time</title>
<path fill="#f4f0e8" stroke="black" d="M95.5,-344C95.5,-344 28.5,-344 28.5,-344 22.5,-344 16.5,-338 16.5,-332 16.5,-332 16.5,-320 16.5,-320 16.5,-314 22.5,-308 28.5,-308 28.5,-308 95.5,-308 95.5,-308 101.5,-308 107.5,-314 107.5,-320 107.5,-320 107.5,-332 107.5,-332 107.5,-338 101.5,-344 95.5,-344"/>
<text text-anchor="middle" x="62" y="-322.3" font-family="Times,serif" font-size="14.00">measure time</text>
</g>
<!-- linear_read&#45;&gt;linear_time -->
<g id="edge6" class="edge">
<title>linear_read&#45;&gt;linear_time</title>
<path fill="none" stroke="black" d="M58.81,-394.8C59.36,-383.16 60.09,-367.55 60.72,-354.24"/>
<polygon fill="black" stroke="black" points="64.22,-354.33 61.19,-344.18 57.23,-354 64.22,-354.33"/>
</g>
<!-- linear_calc -->
<g id="node8" class="node">
<title>linear_calc</title>
<path fill="#f4f0e8" stroke="black" d="M101.5,-271C101.5,-271 52.5,-271 52.5,-271 46.5,-271 40.5,-265 40.5,-259 40.5,-259 40.5,-247 40.5,-247 40.5,-241 46.5,-235 52.5,-235 52.5,-235 101.5,-235 101.5,-235 107.5,-235 113.5,-241 113.5,-247 113.5,-247 113.5,-259 113.5,-259 113.5,-265 107.5,-271 101.5,-271"/>
<text text-anchor="middle" x="77" y="-249.3" font-family="Times,serif" font-size="14.00">calc MB/s</text>
</g>
<!-- linear_time&#45;&gt;linear_calc -->
<g id="edge7" class="edge">
<title>linear_time&#45;&gt;linear_calc</title>
<path fill="none" stroke="black" d="M65.63,-307.81C67.33,-299.79 69.38,-290.05 71.28,-281.07"/>
<polygon fill="black" stroke="black" points="74.76,-281.54 73.4,-271.03 67.91,-280.09 74.76,-281.54"/>
</g>
<!-- linear_progress -->
<g id="node9" class="node">
<title>linear_progress</title>
<path fill="#f4f0e8" stroke="black" d="M192,-198C192,-198 38,-198 38,-198 32,-198 26,-192 26,-186 26,-186 26,-174 26,-174 26,-168 32,-162 38,-162 38,-162 192,-162 192,-162 198,-162 204,-168 204,-174 204,-174 204,-186 204,-186 204,-192 198,-198 192,-198"/>
<text text-anchor="middle" x="115" y="-176.3" font-family="Times,serif" font-size="14.00">periodic BenchMsg::Progress</text>
</g>
<!-- linear_calc&#45;&gt;linear_progress -->
<g id="edge8" class="edge">
<title>linear_calc&#45;&gt;linear_progress</title>
<path fill="none" stroke="black" d="M86.2,-234.81C90.68,-226.44 96.16,-216.2 101.14,-206.9"/>
<polygon fill="black" stroke="black" points="104.25,-208.5 105.89,-198.03 98.08,-205.19 104.25,-208.5"/>
</g>
<!-- linear_progress&#45;&gt;linear_loop -->
<g id="edge9" class="edge">
<title>linear_progress&#45;&gt;linear_loop</title>
<path fill="none" stroke="black" d="M126.3,-198.01C134.44,-211.92 144,-232.43 144,-252 144,-487 144,-487 144,-487 144,-501.7 141.47,-517.87 138.73,-531.06"/>
<polygon fill="black" stroke="black" points="135.29,-530.4 136.54,-540.92 142.13,-531.92 135.29,-530.4"/>
<text text-anchor="middle" x="156.5" y="-365.8" font-family="Times,serif" font-size="14.00">loop</text>
</g>
<!-- linear_agg -->
<g id="node15" class="node">
<title>linear_agg</title>
<path fill="#f4f0e8" stroke="black" d="M213.5,-111C213.5,-111 148.5,-111 148.5,-111 142.5,-111 136.5,-105 136.5,-99 136.5,-99 136.5,-85 136.5,-85 136.5,-79 142.5,-73 148.5,-73 148.5,-73 213.5,-73 213.5,-73 219.5,-73 225.5,-79 225.5,-85 225.5,-85 225.5,-99 225.5,-99 225.5,-105 219.5,-111 213.5,-111"/>
<text text-anchor="middle" x="181" y="-95.8" font-family="Times,serif" font-size="14.00">aggregate</text>
<text text-anchor="middle" x="181" y="-80.8" font-family="Times,serif" font-size="14.00">min/avg/max</text>
</g>
<!-- linear_progress&#45;&gt;linear_agg -->
<g id="edge10" class="edge">
<title>linear_progress&#45;&gt;linear_agg</title>
<path fill="none" stroke="black" d="M128.36,-161.6C137.65,-149.48 150.22,-133.11 160.74,-119.4"/>
<polygon fill="black" stroke="black" points="163.67,-121.33 166.98,-111.27 158.12,-117.07 163.67,-121.33"/>
<text text-anchor="middle" x="164.5" y="-132.8" font-family="Times,serif" font-size="14.00">done</text>
</g>
<!-- seek_seek -->
<g id="node11" class="node">
<title>seek_seek</title>
<path fill="#f4f0e8" stroke="black" d="M266,-431C266,-431 236,-431 236,-431 230,-431 224,-425 224,-419 224,-419 224,-407 224,-407 224,-401 230,-395 236,-395 236,-395 266,-395 266,-395 272,-395 278,-401 278,-407 278,-407 278,-419 278,-419 278,-425 272,-431 266,-431"/>
<text text-anchor="middle" x="251" y="-409.3" font-family="Times,serif" font-size="14.00">seek()</text>
</g>
<!-- seek_random&#45;&gt;seek_seek -->
<g id="edge12" class="edge">
<title>seek_random&#45;&gt;seek_seek</title>
<path fill="none" stroke="black" d="M254.03,-467.81C253.58,-459.79 253.03,-450.05 252.53,-441.07"/>
<polygon fill="black" stroke="black" points="256.02,-440.82 251.96,-431.03 249.03,-441.21 256.02,-440.82"/>
</g>
<!-- seek_read -->
<g id="node12" class="node">
<title>seek_read</title>
<path fill="#f4f0e8" stroke="black" d="M269,-344C269,-344 219,-344 219,-344 213,-344 207,-338 207,-332 207,-332 207,-320 207,-320 207,-314 213,-308 219,-308 219,-308 269,-308 269,-308 275,-308 281,-314 281,-320 281,-320 281,-332 281,-332 281,-338 275,-344 269,-344"/>
<text text-anchor="middle" x="244" y="-322.3" font-family="Times,serif" font-size="14.00">read(4KB)</text>
</g>
<!-- seek_seek&#45;&gt;seek_read -->
<g id="edge13" class="edge">
<title>seek_seek&#45;&gt;seek_read</title>
<path fill="none" stroke="black" d="M249.58,-394.8C248.63,-383.16 247.34,-367.55 246.24,-354.24"/>
<polygon fill="black" stroke="black" points="249.72,-353.85 245.41,-344.18 242.75,-354.43 249.72,-353.85"/>
</g>
<!-- seek_time -->
<g id="node13" class="node">
<title>seek_time</title>
<path fill="#f4f0e8" stroke="black" d="M281.5,-271C281.5,-271 200.5,-271 200.5,-271 194.5,-271 188.5,-265 188.5,-259 188.5,-259 188.5,-247 188.5,-247 188.5,-241 194.5,-235 200.5,-235 200.5,-235 281.5,-235 281.5,-235 287.5,-235 293.5,-241 293.5,-247 293.5,-247 293.5,-259 293.5,-259 293.5,-265 287.5,-271 281.5,-271"/>
<text text-anchor="middle" x="241" y="-249.3" font-family="Times,serif" font-size="14.00">measure latency</text>
</g>
<!-- seek_read&#45;&gt;seek_time -->
<g id="edge14" class="edge">
<title>seek_read&#45;&gt;seek_time</title>
<path fill="none" stroke="black" d="M243.27,-307.81C242.93,-299.79 242.52,-290.05 242.14,-281.07"/>
<polygon fill="black" stroke="black" points="245.64,-280.87 241.72,-271.03 238.64,-281.17 245.64,-280.87"/>
</g>
<!-- seek_progress -->
<g id="node14" class="node">
<title>seek_progress</title>
<path fill="#f4f0e8" stroke="black" d="M388,-198C388,-198 234,-198 234,-198 228,-198 222,-192 222,-186 222,-186 222,-174 222,-174 222,-168 228,-162 234,-162 234,-162 388,-162 388,-162 394,-162 400,-168 400,-174 400,-174 400,-186 400,-186 400,-192 394,-198 388,-198"/>
<text text-anchor="middle" x="311" y="-176.3" font-family="Times,serif" font-size="14.00">periodic BenchMsg::Progress</text>
</g>
<!-- seek_time&#45;&gt;seek_progress -->
<g id="edge15" class="edge">
<title>seek_time&#45;&gt;seek_progress</title>
<path fill="none" stroke="black" d="M257.95,-234.81C266.72,-225.92 277.57,-214.91 287.17,-205.17"/>
<polygon fill="black" stroke="black" points="289.68,-207.61 294.21,-198.03 284.7,-202.69 289.68,-207.61"/>
</g>
<!-- seek_progress&#45;&gt;seek_loop -->
<g id="edge16" class="edge">
<title>seek_progress&#45;&gt;seek_loop</title>
<path fill="none" stroke="black" d="M315.16,-198.1C318.27,-212.41 322,-233.41 322,-252 322,-487 322,-487 322,-487 322,-504.72 311.39,-521.05 299.85,-533.56"/>
<polygon fill="black" stroke="black" points="297.19,-531.28 292.63,-540.84 302.16,-536.21 297.19,-531.28"/>
<text text-anchor="middle" x="334.5" y="-365.8" font-family="Times,serif" font-size="14.00">loop</text>
</g>
<!-- seek_agg -->
<g id="node16" class="node">
<title>seek_agg</title>
<path fill="#f4f0e8" stroke="black" d="M331.5,-111C331.5,-111 266.5,-111 266.5,-111 260.5,-111 254.5,-105 254.5,-99 254.5,-99 254.5,-85 254.5,-85 254.5,-79 260.5,-73 266.5,-73 266.5,-73 331.5,-73 331.5,-73 337.5,-73 343.5,-79 343.5,-85 343.5,-85 343.5,-99 343.5,-99 343.5,-105 337.5,-111 331.5,-111"/>
<text text-anchor="middle" x="299" y="-95.8" font-family="Times,serif" font-size="14.00">aggregate</text>
<text text-anchor="middle" x="299" y="-80.8" font-family="Times,serif" font-size="14.00">min/avg/max</text>
</g>
<!-- seek_progress&#45;&gt;seek_agg -->
<g id="edge17" class="edge">
<title>seek_progress&#45;&gt;seek_agg</title>
<path fill="none" stroke="black" d="M308.57,-161.6C306.96,-150.06 304.81,-134.65 302.96,-121.36"/>
<polygon fill="black" stroke="black" points="306.4,-120.69 301.55,-111.27 299.46,-121.66 306.4,-120.69"/>
<text text-anchor="middle" x="319.5" y="-132.8" font-family="Times,serif" font-size="14.00">done</text>
</g>
<!-- results -->
<g id="node17" class="node">
<title>results</title>
<path fill="#f4f0e8" stroke="black" d="M277.5,-36C277.5,-36 190.5,-36 190.5,-36 184.5,-36 178.5,-30 178.5,-24 178.5,-24 178.5,-12 178.5,-12 178.5,-6 184.5,0 190.5,0 190.5,0 277.5,0 277.5,0 283.5,0 289.5,-6 289.5,-12 289.5,-12 289.5,-24 289.5,-24 289.5,-30 283.5,-36 277.5,-36"/>
<text text-anchor="middle" x="234" y="-14.3" font-family="Times,serif" font-size="14.00">DiskBenchResult</text>
</g>
<!-- linear_agg&#45;&gt;results -->
<g id="edge18" class="edge">
<title>linear_agg&#45;&gt;results</title>
<path fill="none" stroke="black" d="M194.37,-72.83C200.67,-64.28 208.28,-53.94 215.14,-44.62"/>
<polygon fill="black" stroke="black" points="218.07,-46.55 221.18,-36.42 212.43,-42.4 218.07,-46.55"/>
</g>
<!-- seek_agg&#45;&gt;results -->
<g id="edge19" class="edge">
<title>seek_agg&#45;&gt;results</title>
<path fill="none" stroke="black" d="M282.6,-72.83C274.72,-64.11 265.16,-53.52 256.61,-44.05"/>
<polygon fill="black" stroke="black" points="259.02,-41.5 249.72,-36.42 253.83,-46.19 259.02,-41.5"/>
</g>
</g>
</svg>
