<?xml version="1.0" encoding="UTF-8" standalone="no"?>
<!DOCTYPE svg PUBLIC "-//W3C//DTD SVG 1.1//EN"
 "http://www.w3.org/Graphics/SVG/1.1/DTD/svg11.dtd">
<!-- Generated by graphviz version 2.43.0 (0)
 -->
<!-- Title: roadmap Pages: 1 -->
<svg width="729pt" height="910pt"
 viewBox="0.00 0.00 728.50 910.00" xmlns="http://www.w3.org/2000/svg" xmlns:xlink="http://www.w3.org/1999/xlink">
<g id="graph0" class="graph" transform="scale(1 1) rotate(0) translate(4 906)">
<title>roadmap</title>
<polygon fill="white" stroke="transparent" points="-4,4 -4,-906 724.5,-906 724.5,4 -4,4"/>
<!-- complete -->
<g id="node1" class="node">
<title>complete</title>
<polygon fill="#e8f4e8" stroke="black" stroke-width="2" points="481,-902 330,-902 330,-866 481,-866 481,-902"/>
<text text-anchor="middle" x="405.5" y="-880.3" font-family="Times,serif" font-size="14.00">Phases 0&#45;9 COMPLETE</text>
</g>
<!-- p0 -->
<g id="node2" class="node">
<title>p0</title>
<path fill="#e8f4e8" stroke="black" d="M450,-830C450,-830 361,-830 361,-830 355,-830 349,-824 349,-818 349,-818 349,-806 349,-806 349,-800 355,-794 361,-794 361,-794 450,-794 450,-794 456,-794 462,-800 462,-806 462,-806 462,-818 462,-818 462,-824 456,-830 450,-830"/>
<text text-anchor="middle" x="405.5" y="-808.3" font-family="Times,serif" font-size="14.00">Phase 0: Skeleton</text>
</g>
<!-- complete&#45;&gt;p0 -->
<g id="edge1" class="edge">
<title>complete&#45;&gt;p0</title>
<path fill="none" stroke="black" d="M405.5,-865.7C405.5,-857.98 405.5,-848.71 405.5,-840.11"/>
<polygon fill="black" stroke="black" points="409,-840.1 405.5,-830.1 402,-840.1 409,-840.1"/>
</g>
<!-- p1 -->
<g id="node3" class="node">
<title>p1</title>
<path fill="#e8f4e8" stroke="black" d="M460.5,-758C460.5,-758 350.5,-758 350.5,-758 344.5,-758 338.5,-752 338.5,-746 338.5,-746 338.5,-734 338.5,-734 338.5,-728 344.5,-722 350.5,-722 350.5,-722 460.5,-722 460.5,-722 466.5,-722 472.5,-728 472.5,-734 472.5,-734 472.5,-746 472.5,-746 472.5,-752 466.5,-758 460.5,-758"/>
<text text-anchor="middle" x="405.5" y="-736.3" font-family="Times,serif" font-size="14.00">Phase 1: Benchmarks</text>
</g>
<!-- p0&#45;&gt;p1 -->
<g id="edge2" class="edge">
<title>p0&#45;&gt;p1</title>
<path fill="none" stroke="black" d="M405.5,-793.7C405.5,-785.98 405.5,-776.71 405.5,-768.11"/>
<polygon fill="black" stroke="black" points="409,-768.1 405.5,-758.1 402,-768.1 409,-768.1"/>
</g>
<!-- p2 -->
<g id="node4" class="node">
<title>p2</title>
<path fill="#e8f4e8" stroke="black" d="M459.5,-686C459.5,-686 351.5,-686 351.5,-686 345.5,-686 339.5,-680 339.5,-674 339.5,-674 339.5,-662 339.5,-662 339.5,-656 345.5,-650 351.5,-650 351.5,-650 459.5,-650 459.5,-650 465.5,-650 471.5,-656 471.5,-662 471.5,-662 471.5,-674 471.5,-674 471.5,-680 465.5,-686 459.5,-686"/>
<text text-anchor="middle" x="405.5" y="-664.3" font-family="Times,serif" font-size="14.00">Phase 2: Device scan</text>
</g>
<!-- p1&#45;&gt;p2 -->
<g id="edge3" class="edge">
<title>p1&#45;&gt;p2</title>
<path fill="none" stroke="black" d="M405.5,-721.7C405.5,-713.98 405.5,-704.71 405.5,-696.11"/>
<polygon fill="black" stroke="black" points="409,-696.1 405.5,-686.1 402,-696.1 409,-696.1"/>
</g>
<!-- p3 -->
<g id="node5" class="node">
<title>p3</title>
<path fill="#e8f4e8" stroke="black" d="M451,-614C451,-614 360,-614 360,-614 354,-614 348,-608 348,-602 348,-602 348,-590 348,-590 348,-584 354,-578 360,-578 360,-578 451,-578 451,-578 457,-578 463,-584 463,-590 463,-590 463,-602 463,-602 463,-608 457,-614 451,-614"/>
<text text-anchor="middle" x="405.5" y="-592.3" font-family="Times,serif" font-size="14.00">Phase 3: TUI core</text>
</g>
<!-- p2&#45;&gt;p3 -->
<g id="edge4" class="edge">
<title>p2&#45;&gt;p3</title>
<path fill="none" stroke="black" d="M405.5,-649.7C405.5,-641.98 405.5,-632.71 405.5,-624.11"/>
<polygon fill="black" stroke="black" points="409,-624.1 405.5,-614.1 402,-624.1 409,-624.1"/>
</g>
<!-- p4 -->
<g id="node6" class="node">
<title>p4</title>
<path fill="#e8f4e8" stroke="black" d="M444,-542C444,-542 367,-542 367,-542 361,-542 355,-536 355,-530 355,-530 355,-518 355,-518 355,-512 361,-506 367,-506 367,-506 444,-506 444,-506 450,-506 456,-512 456,-518 456,-518 456,-530 456,-530 456,-536 450,-542 444,-542"/>
<text text-anchor="middle" x="405.5" y="-520.3" font-family="Times,serif" font-size="14.00">Phase 4: Charts</text>
</g>
<!-- p3&#45;&gt;p4 -->
<g id="edge5" class="edge">
<title>p3&#45;&gt;p4</title>
<path fill="none" stroke="black" d="M405.5,-577.7C405.5,-569.98 405.5,-560.71 405.5,-552.11"/>
<polygon fill="black" stroke="black" points="409,-552.1 405.5,-542.1 402,-552.1 409,-552.1"/>
</g>
<!-- p5 -->
<g id="node7" class="node">
<title>p5</title>
<path fill="#e8f4e8" stroke="black" d="M457.5,-470C457.5,-470 353.5,-470 353.5,-470 347.5,-470 341.5,-464 341.5,-458 341.5,-458 341.5,-446 341.5,-446 341.5,-440 347.5,-434 353.5,-434 353.5,-434 457.5,-434 457.5,-434 463.5,-434 469.5,-440 469.5,-446 469.5,-446 469.5,-458 469.5,-458 469.5,-464 463.5,-470 457.5,-470"/>
<text text-anchor="middle" x="405.5" y="-448.3" font-family="Times,serif" font-size="14.00">Phase 5: Test modes</text>
</g>
<!-- p4&#45;&gt;p5 -->
<g id="edge6" class="edge">
<title>p4&#45;&gt;p5</title>
<path fill="none" stroke="black" d="M405.5,-505.7C405.5,-497.98 405.5,-488.71 405.5,-480.11"/>
<polygon fill="black" stroke="black" points="409,-480.1 405.5,-470.1 402,-480.1 409,-480.1"/>
</g>
<!-- p6 -->
<g id="node8" class="node">
<title>p6</title>
<path fill="#e8f4e8" stroke="black" d="M450.5,-398C450.5,-398 360.5,-398 360.5,-398 354.5,-398 348.5,-392 348.5,-386 348.5,-386 348.5,-374 348.5,-374 348.5,-368 354.5,-362 360.5,-362 360.5,-362 450.5,-362 450.5,-362 456.5,-362 462.5,-368 462.5,-374 462.5,-374 462.5,-386 462.5,-386 462.5,-392 456.5,-398 450.5,-398"/>
<text text-anchor="middle" x="405.5" y="-376.3" font-family="Times,serif" font-size="14.00">Phase 6: CLI args</text>
</g>
<!-- p5&#45;&gt;p6 -->
<g id="edge7" class="edge">
<title>p5&#45;&gt;p6</title>
<path fill="none" stroke="black" d="M405.5,-433.7C405.5,-425.98 405.5,-416.71 405.5,-408.11"/>
<polygon fill="black" stroke="black" points="409,-408.1 405.5,-398.1 402,-408.1 409,-408.1"/>
</g>
<!-- p7 -->
<g id="node9" class="node">
<title>p7</title>
<path fill="#e8f4e8" stroke="black" d="M445,-326C445,-326 366,-326 366,-326 360,-326 354,-320 354,-314 354,-314 354,-302 354,-302 354,-296 360,-290 366,-290 366,-290 445,-290 445,-290 451,-290 457,-296 457,-302 457,-302 457,-314 457,-314 457,-320 451,-326 445,-326"/>
<text text-anchor="middle" x="405.5" y="-304.3" font-family="Times,serif" font-size="14.00">Phase 7: Clippy</text>
</g>
<!-- p6&#45;&gt;p7 -->
<g id="edge8" class="edge">
<title>p6&#45;&gt;p7</title>
<path fill="none" stroke="black" d="M405.5,-361.7C405.5,-353.98 405.5,-344.71 405.5,-336.11"/>
<polygon fill="black" stroke="black" points="409,-336.1 405.5,-326.1 402,-336.1 409,-336.1"/>
</g>
<!-- p8 -->
<g id="node10" class="node">
<title>p8</title>
<path fill="#e8f4e8" stroke="black" d="M460.5,-254C460.5,-254 350.5,-254 350.5,-254 344.5,-254 338.5,-248 338.5,-242 338.5,-242 338.5,-230 338.5,-230 338.5,-224 344.5,-218 350.5,-218 350.5,-218 460.5,-218 460.5,-218 466.5,-218 472.5,-224 472.5,-230 472.5,-230 472.5,-242 472.5,-242 472.5,-248 466.5,-254 460.5,-254"/>
<text text-anchor="middle" x="405.5" y="-232.3" font-family="Times,serif" font-size="14.00">Phase 8: Golden tests</text>
</g>
<!-- p7&#45;&gt;p8 -->
<g id="edge9" class="edge">
<title>p7&#45;&gt;p8</title>
<path fill="none" stroke="black" d="M405.5,-289.7C405.5,-281.98 405.5,-272.71 405.5,-264.11"/>
<polygon fill="black" stroke="black" points="409,-264.1 405.5,-254.1 402,-264.1 409,-264.1"/>
</g>
<!-- p9 -->
<g id="node11" class="node">
<title>p9</title>
<path fill="#e8f4e8" stroke="black" d="M448.5,-182C448.5,-182 362.5,-182 362.5,-182 356.5,-182 350.5,-176 350.5,-170 350.5,-170 350.5,-158 350.5,-158 350.5,-152 356.5,-146 362.5,-146 362.5,-146 448.5,-146 448.5,-146 454.5,-146 460.5,-152 460.5,-158 460.5,-158 460.5,-170 460.5,-170 460.5,-176 454.5,-182 448.5,-182"/>
<text text-anchor="middle" x="405.5" y="-160.3" font-family="Times,serif" font-size="14.00">Phase 9: Perf opt</text>
</g>
<!-- p8&#45;&gt;p9 -->
<g id="edge10" class="edge">
<title>p8&#45;&gt;p9</title>
<path fill="none" stroke="black" d="M405.5,-217.7C405.5,-209.98 405.5,-200.71 405.5,-192.11"/>
<polygon fill="black" stroke="black" points="409,-192.1 405.5,-182.1 402,-192.1 409,-192.1"/>
</g>
<!-- future -->
<g id="node12" class="node">
<title>future</title>
<polygon fill="#f4e8e8" stroke="black" points="476,-110 335,-110 335,-74 476,-74 476,-110"/>
<text text-anchor="middle" x="405.5" y="-88.3" font-family="Times,serif" font-size="14.00">Future: Deferred items</text>
</g>
<!-- p9&#45;&gt;future -->
<g id="edge11" class="edge">
<title>p9&#45;&gt;future</title>
<path fill="none" stroke="black" d="M405.5,-145.7C405.5,-137.98 405.5,-128.71 405.5,-120.11"/>
<polygon fill="black" stroke="black" points="409,-120.1 405.5,-110.1 402,-120.1 409,-120.1"/>
</g>
<!-- async_io -->
<g id="node13" class="node">
<title>async_io</title>
<path fill="#e8f4e8" stroke="black" d="M119,-37C119,-37 12,-37 12,-37 6,-37 0,-31 0,-25 0,-25 0,-13 0,-13 0,-7 6,-1 12,-1 12,-1 119,-1 119,-1 125,-1 131,-7 131,-13 131,-13 131,-25 131,-25 131,-31 125,-37 119,-37"/>
<text text-anchor="middle" x="65.5" y="-15.3" font-family="Times,serif" font-size="14.00">Phase 9C: Async I/O</text>
</g>
<!-- future&#45;&gt;async_io -->
<g id="edge12" class="edge">
<title>future&#45;&gt;async_io</title>
<path fill="none" stroke="black" d="M334.76,-77.74C283.48,-67.94 212.22,-53.92 141.25,-38.35"/>
<polygon fill="black" stroke="black" points="141.75,-34.88 131.23,-36.14 140.25,-41.71 141.75,-34.88"/>
</g>
<!-- smart -->
<g id="node14" class="node">
<title>smart</title>
<path fill="#e8f4e8" stroke="black" d="M262,-37C262,-37 161,-37 161,-37 155,-37 149,-31 149,-25 149,-25 149,-13 149,-13 149,-7 155,-1 161,-1 161,-1 262,-1 262,-1 268,-1 274,-7 274,-13 274,-13 274,-25 274,-25 274,-31 268,-37 262,-37"/>
<text text-anchor="middle" x="211.5" y="-15.3" font-family="Times,serif" font-size="14.00">SMART integration</text>
</g>
<!-- future&#45;&gt;smart -->
<g id="edge13" class="edge">
<title>future&#45;&gt;smart</title>
<path fill="none" stroke="black" d="M359.03,-73.99C331.64,-63.97 296.79,-51.21 267.83,-40.62"/>
<polygon fill="black" stroke="black" points="268.85,-37.26 258.26,-37.11 266.45,-43.84 268.85,-37.26"/>
</g>
<!-- memtest -->
<g id="node15" class="node">
<title>memtest</title>
<path fill="#e8f4e8" stroke="black" d="M388.5,-37C388.5,-37 304.5,-37 304.5,-37 298.5,-37 292.5,-31 292.5,-25 292.5,-25 292.5,-13 292.5,-13 292.5,-7 298.5,-1 304.5,-1 304.5,-1 388.5,-1 388.5,-1 394.5,-1 400.5,-7 400.5,-13 400.5,-13 400.5,-25 400.5,-25 400.5,-31 394.5,-37 388.5,-37"/>
<text text-anchor="middle" x="346.5" y="-15.3" font-family="Times,serif" font-size="14.00">MemTest screen</text>
</g>
<!-- future&#45;&gt;memtest -->
<g id="edge14" class="edge">
<title>future&#45;&gt;memtest</title>
<path fill="none" stroke="black" d="M391.22,-73.81C383.97,-65.09 375.04,-54.34 367.06,-44.75"/>
<polygon fill="black" stroke="black" points="369.73,-42.48 360.65,-37.03 364.35,-46.96 369.73,-42.48"/>
</g>
<!-- report_screen -->
<g id="node16" class="node">
<title>report_screen</title>
<path fill="#e8f4e8" stroke="black" d="M498.5,-37C498.5,-37 430.5,-37 430.5,-37 424.5,-37 418.5,-31 418.5,-25 418.5,-25 418.5,-13 418.5,-13 418.5,-7 424.5,-1 430.5,-1 430.5,-1 498.5,-1 498.5,-1 504.5,-1 510.5,-7 510.5,-13 510.5,-13 510.5,-25 510.5,-25 510.5,-31 504.5,-37 498.5,-37"/>
<text text-anchor="middle" x="464.5" y="-15.3" font-family="Times,serif" font-size="14.00">Report screen</text>
</g>
<!-- future&#45;&gt;report_screen -->
<g id="edge15" class="edge">
<title>future&#45;&gt;report_screen</title>
<path fill="none" stroke="black" d="M419.78,-73.81C427.03,-65.09 435.96,-54.34 443.94,-44.75"/>
<polygon fill="black" stroke="black" points="446.65,-46.96 450.35,-37.03 441.27,-42.48 446.65,-46.96"/>
</g>
<!-- packaging -->
<g id="node17" class="node">
<title>packaging</title>
<path fill="#e8f4e8" stroke="black" d="M590,-38C590,-38 541,-38 541,-38 535,-38 529,-32 529,-26 529,-26 529,-12 529,-12 529,-6 535,0 541,0 541,0 590,0 590,0 596,0 602,-6 602,-12 602,-12 602,-26 602,-26 602,-32 596,-38 590,-38"/>
<text text-anchor="middle" x="565.5" y="-22.8" font-family="Times,serif" font-size="14.00">Packaging</text>
<text text-anchor="middle" x="565.5" y="-7.8" font-family="Times,serif" font-size="14.00">(deb/rpm)</text>
</g>
<!-- future&#45;&gt;packaging -->
<g id="edge16" class="edge">
<title>future&#45;&gt;packaging</title>
<path fill="none" stroke="black" d="M443.82,-73.99C466.59,-63.89 495.62,-51.01 519.6,-40.37"/>
<polygon fill="black" stroke="black" points="521.14,-43.51 528.86,-36.26 518.3,-37.11 521.14,-43.51"/>
</g>
<!-- ci -->
<g id="node18" class="node">
<title>ci</title>
<path fill="#e8f4e8" stroke="black" d="M708.5,-37C708.5,-37 632.5,-37 632.5,-37 626.5,-37 620.5,-31 620.5,-25 620.5,-25 620.5,-13 620.5,-13 620.5,-7 626.5,-1 632.5,-1 632.5,-1 708.5,-1 708.5,-1 714.5,-1 720.5,-7 720.5,-13 720.5,-13 720.5,-25 720.5,-25 720.5,-31 714.5,-37 708.5,-37"/>
<text text-anchor="middle" x="670.5" y="-15.3" font-family="Times,serif" font-size="14.00">CI/CD for tests</text>
</g>
<!-- future&#45;&gt;ci -->
<g id="edge17" class="edge">
<title>future&#45;&gt;ci</title>
<path fill="none" stroke="black" d="M474.84,-73.97C512.47,-64.54 560,-52.33 610.53,-38.22"/>
<polygon fill="black" stroke="black" points="611.65,-41.54 620.33,-35.47 609.76,-34.8 611.65,-41.54"/>
</g>
</g>
</svg>
