<?xml version="1.0" encoding="UTF-8" standalone="no"?>
<!DOCTYPE svg PUBLIC "-//W3C//DTD SVG 1.1//EN"
 "http://www.w3.org/Graphics/SVG/1.1/DTD/svg11.dtd">
<!-- Generated by graphviz version 2.43.0 (0)
 -->
<!-- Title: state_machine Pages: 1 -->
<svg width="543pt" height="231pt"
 viewBox="0.00 0.00 543.00 230.51" xmlns="http://www.w3.org/2000/svg" xmlns:xlink="http://www.w3.org/1999/xlink">
<g id="graph0" class="graph" transform="scale(1 1) rotate(0) translate(4 226.51)">
<title>state_machine</title>
<polygon fill="white" stroke="transparent" points="-4,4 -4,-226.51 539,-226.51 539,4 -4,4"/>
<!-- Overview -->
<g id="node1" class="node">
<title>Overview</title>
<path fill="none" stroke="black" d="M148,-127.51C148,-127.51 12,-127.51 12,-127.51 6,-127.51 0,-121.51 0,-115.51 0,-115.51 0,-101.51 0,-101.51 0,-95.51 6,-89.51 12,-89.51 12,-89.51 148,-89.51 148,-89.51 154,-89.51 160,-95.51 160,-101.51 160,-101.51 160,-115.51 160,-115.51 160,-121.51 154,-127.51 148,-127.51"/>
<text text-anchor="middle" x="80" y="-112.31" font-family="Times,serif" font-size="14.00">Overview</text>
<text text-anchor="middle" x="80" y="-97.31" font-family="Times,serif" font-size="14.00">(CPU+Mem benchmarks)</text>
</g>
<!-- DiskSelect -->
<g id="node2" class="node">
<title>DiskSelect</title>
<path fill="none" stroke="black" d="M362,-203.51C362,-203.51 285,-203.51 285,-203.51 279,-203.51 273,-197.51 273,-191.51 273,-191.51 273,-177.51 273,-177.51 273,-171.51 279,-165.51 285,-165.51 285,-165.51 362,-165.51 362,-165.51 368,-165.51 374,-171.51 374,-177.51 374,-177.51 374,-191.51 374,-191.51 374,-197.51 368,-203.51 362,-203.51"/>
<text text-anchor="middle" x="323.5" y="-188.31" font-family="Times,serif" font-size="14.00">DiskSelect</text>
<text text-anchor="middle" x="323.5" y="-173.31" font-family="Times,serif" font-size="14.00">(Choose target)</text>
</g>
<!-- Overview&#45;&gt;DiskSelect -->
<g id="edge1" class="edge">
<title>Overview&#45;&gt;DiskSelect</title>
<path fill="none" stroke="black" d="M94.08,-127.73C110.6,-150.12 141.35,-185.89 178,-200.51 204.61,-211.12 236.03,-209.18 262.76,-203.73"/>
<polygon fill="black" stroke="black" points="263.77,-207.09 272.76,-201.49 262.23,-200.26 263.77,-207.09"/>
<text text-anchor="middle" x="216.5" y="-211.31" font-family="Times,serif" font-size="14.00">F2 (Tab)</text>
</g>
<!-- MemTest -->
<g id="node4" class="node">
<title>MemTest</title>
<path fill="none" stroke="black" d="M346.5,-142.51C346.5,-142.51 300.5,-142.51 300.5,-142.51 294.5,-142.51 288.5,-136.51 288.5,-130.51 288.5,-130.51 288.5,-116.51 288.5,-116.51 288.5,-110.51 294.5,-104.51 300.5,-104.51 300.5,-104.51 346.5,-104.51 346.5,-104.51 352.5,-104.51 358.5,-110.51 358.5,-116.51 358.5,-116.51 358.5,-130.51 358.5,-130.51 358.5,-136.51 352.5,-142.51 346.5,-142.51"/>
<text text-anchor="middle" x="323.5" y="-127.31" font-family="Times,serif" font-size="14.00">MemTest</text>
<text text-anchor="middle" x="323.5" y="-112.31" font-family="Times,serif" font-size="14.00">(Stubbed)</text>
</g>
<!-- Overview&#45;&gt;MemTest -->
<g id="edge4" class="edge">
<title>Overview&#45;&gt;MemTest</title>
<path fill="none" stroke="black" d="M160.01,-122.64C166.08,-123.39 172.13,-124.03 178,-124.51 212.11,-127.3 220.78,-124.76 255,-124.51 262.41,-124.45 270.28,-124.37 277.93,-124.26"/>
<polygon fill="black" stroke="black" points="278.21,-127.76 288.16,-124.12 278.11,-120.76 278.21,-127.76"/>
<text text-anchor="middle" x="216.5" y="-129.31" font-family="Times,serif" font-size="14.00">F3</text>
</g>
<!-- Report -->
<g id="node5" class="node">
<title>Report</title>
<path fill="none" stroke="black" d="M346.5,-80.51C346.5,-80.51 300.5,-80.51 300.5,-80.51 294.5,-80.51 288.5,-74.51 288.5,-68.51 288.5,-68.51 288.5,-54.51 288.5,-54.51 288.5,-48.51 294.5,-42.51 300.5,-42.51 300.5,-42.51 346.5,-42.51 346.5,-42.51 352.5,-42.51 358.5,-48.51 358.5,-54.51 358.5,-54.51 358.5,-68.51 358.5,-68.51 358.5,-74.51 352.5,-80.51 346.5,-80.51"/>
<text text-anchor="middle" x="323.5" y="-65.31" font-family="Times,serif" font-size="14.00">Report</text>
<text text-anchor="middle" x="323.5" y="-50.31" font-family="Times,serif" font-size="14.00">(Stubbed)</text>
</g>
<!-- Overview&#45;&gt;Report -->
<g id="edge5" class="edge">
<title>Overview&#45;&gt;Report</title>
<path fill="none" stroke="black" d="M147.81,-89.5C157.88,-86.96 168.18,-84.53 178,-82.51 211.39,-75.63 249.58,-70.19 278.31,-66.56"/>
<polygon fill="black" stroke="black" points="278.94,-70.01 288.44,-65.31 278.08,-63.07 278.94,-70.01"/>
<text text-anchor="middle" x="216.5" y="-86.31" font-family="Times,serif" font-size="14.00">F4</text>
</g>
<!-- DiskSelect&#45;&gt;Overview -->
<g id="edge8" class="edge">
<title>DiskSelect&#45;&gt;Overview</title>
<path fill="none" stroke="black" d="M272.7,-171.85C244.7,-164.45 209.21,-154.6 178,-144.51 165.47,-140.46 152.16,-135.77 139.55,-131.15"/>
<polygon fill="black" stroke="black" points="140.65,-127.83 130.06,-127.64 138.23,-134.4 140.65,-127.83"/>
<text text-anchor="middle" x="216.5" y="-169.31" font-family="Times,serif" font-size="14.00">F1/Esc</text>
</g>
<!-- DiskTest -->
<g id="node3" class="node">
<title>DiskTest</title>
<path fill="none" stroke="black" d="M523,-165.51C523,-165.51 452,-165.51 452,-165.51 446,-165.51 440,-159.51 440,-153.51 440,-153.51 440,-139.51 440,-139.51 440,-133.51 446,-127.51 452,-127.51 452,-127.51 523,-127.51 523,-127.51 529,-127.51 535,-133.51 535,-139.51 535,-139.51 535,-153.51 535,-153.51 535,-159.51 529,-165.51 523,-165.51"/>
<text text-anchor="middle" x="487.5" y="-150.31" font-family="Times,serif" font-size="14.00">DiskTest</text>
<text text-anchor="middle" x="487.5" y="-135.31" font-family="Times,serif" font-size="14.00">(Linear+Seek)</text>
</g>
<!-- DiskSelect&#45;&gt;DiskTest -->
<g id="edge2" class="edge">
<title>DiskSelect&#45;&gt;DiskTest</title>
<path fill="none" stroke="black" d="M374.15,-173.52C389.5,-170.06 406.47,-166.19 422,-162.51 424.59,-161.9 427.25,-161.26 429.92,-160.62"/>
<polygon fill="black" stroke="black" points="430.78,-164.01 439.67,-158.25 429.13,-157.21 430.78,-164.01"/>
<text text-anchor="middle" x="407" y="-172.31" font-family="Times,serif" font-size="14.00">Enter</text>
</g>
<!-- DiskTest&#45;&gt;Overview -->
<g id="edge9" class="edge">
<title>DiskTest&#45;&gt;Overview</title>
<path fill="none" stroke="black" d="M476.58,-127.15C460.02,-97.26 423.6,-40.95 374,-18.51 294.14,17.62 258.06,-4.81 178,-40.51 153.73,-51.33 129.25,-68.55 110.95,-82.96"/>
<polygon fill="black" stroke="black" points="108.61,-80.35 103,-89.34 112.99,-85.81 108.61,-80.35"/>
<text text-anchor="middle" x="323.5" y="-22.31" font-family="Times,serif" font-size="14.00">F1</text>
</g>
<!-- DiskTest&#45;&gt;DiskSelect -->
<g id="edge3" class="edge">
<title>DiskTest&#45;&gt;DiskSelect</title>
<path fill="none" stroke="black" d="M439.68,-139.48C424.26,-138.62 407.17,-139.26 392,-143.51 385.31,-145.38 373.33,-152.2 361.3,-159.76"/>
<polygon fill="black" stroke="black" points="359.14,-156.99 352.61,-165.33 362.91,-162.88 359.14,-156.99"/>
<text text-anchor="middle" x="407" y="-147.31" font-family="Times,serif" font-size="14.00">Esc</text>
</g>
<!-- MemTest&#45;&gt;Overview -->
<g id="edge6" class="edge">
<title>MemTest&#45;&gt;Overview</title>
<path fill="none" stroke="black" d="M288.16,-112.5C277.64,-109.63 265.94,-106.94 255,-105.51 227.64,-101.92 197.66,-101.28 170.4,-101.93"/>
<polygon fill="black" stroke="black" points="169.99,-98.44 160.1,-102.24 170.2,-105.44 169.99,-98.44"/>
<text text-anchor="middle" x="216.5" y="-109.31" font-family="Times,serif" font-size="14.00">(→Overview)</text>
</g>
<!-- Report&#45;&gt;Overview -->
<g id="edge7" class="edge">
<title>Report&#45;&gt;Overview</title>
<path fill="none" stroke="black" d="M288.29,-52.43C258.6,-46.08 214.74,-40.36 178,-50.51 154.59,-56.97 131.15,-70.74 113.18,-83.24"/>
<polygon fill="black" stroke="black" points="110.9,-80.57 104.81,-89.24 114.98,-86.25 110.9,-80.57"/>
<text text-anchor="middle" x="216.5" y="-54.31" font-family="Times,serif" font-size="14.00">(→Overview)</text>
</g>
</g>
</svg>
