<?xml version="1.0" encoding="UTF-8" standalone="no"?>
<!DOCTYPE svg PUBLIC "-//W3C//DTD SVG 1.1//EN"
 "http://www.w3.org/Graphics/SVG/1.1/DTD/svg11.dtd">
<!-- Generated by graphviz version 2.43.0 (0)
 -->
<!-- Title: troubleshooting Pages: 1 -->
<svg width="415pt" height="515pt"
 viewBox="0.00 0.00 414.50 515.00" xmlns="http://www.w3.org/2000/svg" xmlns:xlink="http://www.w3.org/1999/xlink">
<g id="graph0" class="graph" transform="scale(1 1) rotate(0) translate(4 511)">
<title>troubleshooting</title>
<polygon fill="white" stroke="transparent" points="-4,4 -4,-511 410.5,-511 410.5,4 -4,4"/>
<!-- start -->
<g id="node1" class="node">
<title>start</title>
<path fill="#e8f4e8" stroke="black" d="M241,-507C241,-507 211,-507 211,-507 205,-507 199,-501 199,-495 199,-495 199,-483 199,-483 199,-477 205,-471 211,-471 211,-471 241,-471 241,-471 247,-471 253,-477 253,-483 253,-483 253,-495 253,-495 253,-501 247,-507 241,-507"/>
<text text-anchor="middle" x="226" y="-485.3" font-family="Times,serif" font-size="14.00">Issue?</text>
</g>
<!-- perm -->
<g id="node2" class="node">
<title>perm</title>
<path fill="#e8f4e8" stroke="black" d="M215.24,-428.69C215.24,-428.69 159.76,-401.31 159.76,-401.31 154.38,-398.66 154.38,-393.34 159.76,-390.69 159.76,-390.69 215.24,-363.31 215.24,-363.31 220.62,-360.66 231.38,-360.66 236.76,-363.31 236.76,-363.31 292.24,-390.69 292.24,-390.69 297.62,-393.34 297.62,-398.66 292.24,-401.31 292.24,-401.31 236.76,-428.69 236.76,-428.69 231.38,-431.34 220.62,-431.34 215.24,-428.69"/>
<text text-anchor="middle" x="226" y="-399.8" font-family="Times,serif" font-size="14.00">Permission</text>
<text text-anchor="middle" x="226" y="-384.8" font-family="Times,serif" font-size="14.00">Denied?</text>
</g>
<!-- start&#45;&gt;perm -->
<g id="edge1" class="edge">
<title>start&#45;&gt;perm</title>
<path fill="none" stroke="black" d="M226,-470.88C226,-463.25 226,-453.83 226,-444.31"/>
<polygon fill="black" stroke="black" points="229.5,-444.02 226,-434.02 222.5,-444.02 229.5,-444.02"/>
</g>
<!-- no_disks -->
<g id="node3" class="node">
<title>no_disks</title>
<path fill="#e8f4e8" stroke="black" d="M125.42,-301.34C125.42,-301.34 75.58,-274.66 75.58,-274.66 70.29,-271.83 70.29,-266.17 75.58,-263.34 75.58,-263.34 125.42,-236.66 125.42,-236.66 130.71,-233.83 141.29,-233.83 146.58,-236.66 146.58,-236.66 196.42,-263.34 196.42,-263.34 201.71,-266.17 201.71,-271.83 196.42,-274.66 196.42,-274.66 146.58,-301.34 146.58,-301.34 141.29,-304.17 130.71,-304.17 125.42,-301.34"/>
<text text-anchor="middle" x="136" y="-272.8" font-family="Times,serif" font-size="14.00">No Disks</text>
<text text-anchor="middle" x="136" y="-257.8" font-family="Times,serif" font-size="14.00">Detected?</text>
</g>
<!-- perm&#45;&gt;no_disks -->
<g id="edge2" class="edge">
<title>perm&#45;&gt;no_disks</title>
<path fill="none" stroke="black" d="M206.25,-367.57C193.03,-349.21 175.51,-324.87 161.27,-305.1"/>
<polygon fill="black" stroke="black" points="164.08,-303.01 155.4,-296.94 158.4,-307.1 164.08,-303.01"/>
<text text-anchor="middle" x="195.5" y="-328.8" font-family="Times,serif" font-size="14.00">No</text>
</g>
<!-- perm_yes -->
<g id="node5" class="node">
<title>perm_yes</title>
<path fill="#e8f4e8" stroke="black" d="M394.5,-288C394.5,-288 237.5,-288 237.5,-288 231.5,-288 225.5,-282 225.5,-276 225.5,-276 225.5,-262 225.5,-262 225.5,-256 231.5,-250 237.5,-250 237.5,-250 394.5,-250 394.5,-250 400.5,-250 406.5,-256 406.5,-262 406.5,-262 406.5,-276 406.5,-276 406.5,-282 400.5,-288 394.5,-288"/>
<text text-anchor="middle" x="316" y="-272.8" font-family="Times,serif" font-size="14.00">Try: sudo ./speedsys&#45;rs</text>
<text text-anchor="middle" x="316" y="-257.8" font-family="Times,serif" font-size="14.00">Or: usermod &#45;aG disk $USER</text>
</g>
<!-- perm&#45;&gt;perm_yes -->
<g id="edge3" class="edge">
<title>perm&#45;&gt;perm_yes</title>
<path fill="none" stroke="black" d="M245.75,-367.57C261.03,-346.35 282.06,-317.15 297.11,-296.23"/>
<polygon fill="black" stroke="black" points="299.96,-298.26 302.97,-288.1 294.28,-294.17 299.96,-298.26"/>
<text text-anchor="middle" x="287.5" y="-328.8" font-family="Times,serif" font-size="14.00">Yes</text>
</g>
<!-- hangs -->
<g id="node4" class="node">
<title>hangs</title>
<path fill="#e8f4e8" stroke="black" d="M51.02,-173.34C51.02,-173.34 13.98,-148.66 13.98,-148.66 8.99,-145.33 8.99,-138.67 13.98,-135.34 13.98,-135.34 51.02,-110.66 51.02,-110.66 56.01,-107.33 65.99,-107.33 70.98,-110.66 70.98,-110.66 108.02,-135.34 108.02,-135.34 113.01,-138.67 113.01,-145.33 108.02,-148.66 108.02,-148.66 70.98,-173.34 70.98,-173.34 65.99,-176.67 56.01,-176.67 51.02,-173.34"/>
<text text-anchor="middle" x="61" y="-145.8" font-family="Times,serif" font-size="14.00">Test</text>
<text text-anchor="middle" x="61" y="-130.8" font-family="Times,serif" font-size="14.00">Hangs?</text>
</g>
<!-- no_disks&#45;&gt;hangs -->
<g id="edge4" class="edge">
<title>no_disks&#45;&gt;hangs</title>
<path fill="none" stroke="black" d="M119.17,-239.95C108.23,-221.72 93.89,-197.81 82.18,-178.29"/>
<polygon fill="black" stroke="black" points="85.15,-176.45 77,-169.67 79.15,-180.05 85.15,-176.45"/>
<text text-anchor="middle" x="111.5" y="-201.8" font-family="Times,serif" font-size="14.00">No</text>
</g>
<!-- no_disks_yes -->
<g id="node6" class="node">
<title>no_disks_yes</title>
<path fill="#e8f4e8" stroke="black" d="M272,-161C272,-161 148,-161 148,-161 142,-161 136,-155 136,-149 136,-149 136,-135 136,-135 136,-129 142,-123 148,-123 148,-123 272,-123 272,-123 278,-123 284,-129 284,-135 284,-135 284,-149 284,-149 284,-155 278,-161 272,-161"/>
<text text-anchor="middle" x="210" y="-145.8" font-family="Times,serif" font-size="14.00">Check: ls &#45;la /sys/block/</text>
<text text-anchor="middle" x="210" y="-130.8" font-family="Times,serif" font-size="14.00">Verify device readable</text>
</g>
<!-- no_disks&#45;&gt;no_disks_yes -->
<g id="edge5" class="edge">
<title>no_disks&#45;&gt;no_disks_yes</title>
<path fill="none" stroke="black" d="M152.79,-239.64C165.14,-218.77 181.83,-190.59 193.99,-170.04"/>
<polygon fill="black" stroke="black" points="197.15,-171.58 199.23,-161.19 191.12,-168.02 197.15,-171.58"/>
<text text-anchor="middle" x="188.5" y="-201.8" font-family="Times,serif" font-size="14.00">Yes</text>
</g>
<!-- hangs_yes -->
<g id="node7" class="node">
<title>hangs_yes</title>
<path fill="#e8f4e8" stroke="black" d="M110,-53C110,-53 12,-53 12,-53 6,-53 0,-47 0,-41 0,-41 0,-12 0,-12 0,-6 6,0 12,0 12,0 110,0 110,0 116,0 122,-6 122,-12 122,-12 122,-41 122,-41 122,-47 116,-53 110,-53"/>
<text text-anchor="middle" x="61" y="-37.8" font-family="Times,serif" font-size="14.00">Normal for HDDs</text>
<text text-anchor="middle" x="61" y="-22.8" font-family="Times,serif" font-size="14.00">Watch progress bar</text>
<text text-anchor="middle" x="61" y="-7.8" font-family="Times,serif" font-size="14.00">Est. time in UI</text>
</g>
<!-- hangs&#45;&gt;hangs_yes -->
<g id="edge6" class="edge">
<title>hangs&#45;&gt;hangs_yes</title>
<path fill="none" stroke="black" d="M61,-103.84C61,-90.91 61,-76.43 61,-63.59"/>
<polygon fill="black" stroke="black" points="64.5,-63.25 61,-53.25 57.5,-63.25 64.5,-63.25"/>
<text text-anchor="middle" x="71.5" y="-74.8" font-family="Times,serif" font-size="14.00">Yes</text>
</g>
</g>
</svg>
